<!--?xml version="1.0" encoding="UTF-8"?-->
<svg viewBox="0 0 2048 2048" xmlns="http://www.w3.org/2000/svg" data-name="Dark Version" id="Dark_Version">
  <defs>
    <style>
      .cls-1 {
        fill: #fff;
      }

      .cls-2 {
        fill: #f9b217;
      }

      .cls-3 {
        fill: #ec3261;
      }

      .cls-4 {
        fill: #5099d3;
      }
    </style>
  </defs>
  <path d="m1713.96,1599.2c7.84,0,15.12-3.06,20.47-8.32l-.38,7.08h6.5l14.15-70.77h-8.22l-5.64,28.5c-3.63-5.36-9.85-8.61-17.79-8.61-14.54,0-26.78,10.52-29.74,25.44-3.06,15.59,5.74,26.68,20.66,26.68Zm-12.62-25.63c2.1-10.9,11.48-18.85,22.28-18.85,10.24,0,16.07,7.56,14.06,17.99-2.1,10.71-11.48,18.74-22.19,18.74s-16.16-7.46-14.15-17.88Z"></path>
  <g>
    <g>
      <g>
        <path d="m671.9,1140.83c-12.53-19.56-14.71-45.45-22.31-96.83-6.48-43.79-15.46-125.11,1.99-223.31,13.18-74.18,29.87-168.13,112.37-233.38,74.02-58.55,164.16-64.82,211.08-64.16,174.41,0,317.11,133.9,317.11,297.55,0,26,2.3,61.44,0,132.72-1.12,34.84-3.08,69.66-5.87,104.42-2.52,31.34-8.8,64.21-20.26,86.42-42.63,82.66-215.35,81.81-296.05,81.4-101.39-.5-244.5-1.21-298.07-84.82Z" class="cls-3"></path>
        <path d="m843.6,938.46c-38.66-4.33-79.38.6-117.89,1.99-15.25.55-48.83,5.87-62.31-2.82-39.44-25.43,28.29-128.12,53.51-292.21,10.68-69.46-22.2-134.37-112.53-152.36-50.53-10.06-105.78.19-148.33,24.54-85.72,49.06-104.22,144.01-125.07,221.7-24.02,89.52-39.25,180.38-54.51,271.1-7.54,44.82-14.65,93.64,12.7,135.15,23.01,34.93,65.25,58.42,111.75,68.41,42.89,9.22,87.83,9.4,132.19,9.53,46.35.13,66.31.59,142.8.4,127.08-.32,147.62.47,178.53-12.93,10.1-4.38,42.17-19.32,66.26-49.44,37.55-46.93,29.05-97.34,22.85-134.17-3.25-19.29-10.6-35.37-20.39-50.04-13.6-20.38-36.46-31.38-63.6-36.48-5.28-.99-10.6-1.77-15.97-2.37Z" class="cls-2"></path>
        <path d="m1775.35,1005.27c-8.59-50.71-8.19-49.78-16.39-92.08-12.92-66.69-23.64-134.63-16.82-202.69.7-7,1.59-13.98,2.65-20.94,7.37-48.09,19.38-74.96,4.66-106.41-17.78-37.97-63.91-59.88-104.38-57.29-28.95,1.86-49.81,15.92-57.25,21.08-38.36,26.56-67.48,76.58-76.19,96.71-11.97,27.67-30.81,50.15-60.99,45.49-54.19-8.38-54.46-78.36-87.27-113.52-8.09-8.67-18.28-19.05-34.13-28.81-10.83-6.67-46.87-28.12-92.91-19.8-13.21,2.39-63.67,11.5-81.07,51.88-12.31,28.57,1.97,49.5,9.19,111.57,4.53,38.92,3,65.79,0,118.5-3.38,59.41-13.84,104.08-28.69,192.96,0,0-7.7,41.64-14.41,135.42-2.47,34.46-3.46,61.47,13.17,74.2,7.69,5.89,23.81,5.82,55.73,5.43,43.51-.53,65.26-.86,68.5-.86,11.71,0,1.94.01,89.69-1.13,15.22-.2,41.43-.55,56.15-.75,4.62-.73,11.14-2.48,17.01-7.2,12.05-9.69,13.18-26.26,14.39-47.11,1.21-20.88.32-54.05-13.3-94.65,1.61,1.39,5.93,4.97,12.49,8.14,3,1.45,13.05,5.94,25.92,5.7,20.53-.39,34.55-12.57,38.3-16.05-15.3,41.88-16.27,75.94-15.02,96.75,1.85,30.99,9.12,41.49,15.74,47.22,10.46,9.06,24.25,8.9,37.29,9.56,17.29.87,34.59,1.54,51.89,2.02,34.07.94,68.16,1.13,102.24.62,30.1-.45,77.89,3.82,98.98-22.66,12.77-16.05,9.75-38.41,4.26-78.95-1.07-7.91-1.71-10.51-4.8-27.04-6.3-33.77-8.01-46.48-14.59-85.3Z" class="cls-4"></path>
        <g>
          <rect ry="10.07" rx="10.07" height="77.21" width="22.25" y="587.08" x="570.44" class="cls-1"></rect>
          <rect ry="10.07" rx="10.07" height="77.21" width="22.25" y="587.08" x="624.64" class="cls-1"></rect>
        </g>
        <path d="m953.15,672.84c-.28,21.84,14.21,42.72,33.9,51.62,10.36,4.68,21.8,7.19,33.2,6.13,10.71-1,21.15-4.35,29.78-10.92,5.26-4,9.65-8.44,13.37-13.94,3.11-4.6,5.44-9.94,6.76-15.33.66-2.71.36-5.71-1.06-8.14-1.28-2.19-3.79-4.28-6.31-4.85-2.7-.62-5.74-.48-8.14,1.06-2.28,1.47-4.2,3.61-4.85,6.31-.5,2.05-1.16,4.05-1.98,6l1.06-2.52c-1.4,3.26-3.22,6.3-5.38,9.11l1.65-2.14c-2.31,2.94-4.96,5.56-7.91,7.85l2.14-1.65c-3.13,2.4-6.54,4.38-10.17,5.94l2.52-1.06c-3.95,1.65-8.07,2.74-12.31,3.32l2.81-.38c-4.78.61-9.6.58-14.37-.05l2.81.38c-4.94-.69-9.76-1.99-14.36-3.93l2.52,1.06c-4.06-1.74-7.87-3.95-11.37-6.65l2.14,1.65c-3.3-2.59-6.25-5.56-8.82-8.87l1.65,2.14c-2.48-3.25-4.56-6.77-6.17-10.53l1.06,2.52c-1.49-3.56-2.54-7.27-3.07-11.09l.38,2.81c-.25-1.94-.37-3.89-.34-5.85.03-2.69-1.2-5.58-3.09-7.47s-4.84-3.21-7.47-3.09c-5.78.26-10.49,4.64-10.56,10.56h0Z" class="cls-1"></path>
        <path d="m797.44,656.14c-.28,21.84,14.21,42.72,33.9,51.62,10.36,4.68,21.8,7.19,33.2,6.13,10.71-1,21.15-4.35,29.78-10.92,5.26-4,9.65-8.44,13.37-13.94,3.11-4.6,5.44-9.94,6.76-15.33.66-2.71.36-5.71-1.06-8.14-1.28-2.19-3.79-4.28-6.31-4.85-2.7-.62-5.74-.48-8.14,1.06-2.28,1.47-4.2,3.61-4.85,6.31-.5,2.05-1.16,4.05-1.98,6l1.06-2.52c-1.4,3.26-3.22,6.3-5.38,9.11l1.65-2.14c-2.31,2.94-4.96,5.56-7.91,7.85l2.14-1.65c-3.13,2.4-6.54,4.38-10.17,5.94l2.52-1.06c-3.95,1.65-8.07,2.74-12.31,3.32l2.81-.38c-4.78.61-9.6.58-14.37-.05l2.81.38c-4.94-.69-9.76-1.99-14.36-3.93l2.52,1.06c-4.06-1.74-7.87-3.95-11.37-6.65l2.14,1.65c-3.3-2.59-6.25-5.56-8.82-8.87l1.65,2.14c-2.48-3.25-4.56-6.77-6.17-10.53l1.06,2.52c-1.49-3.56-2.54-7.27-3.07-11.09l.38,2.81c-.25-1.94-.37-3.89-.34-5.85.03-2.69-1.2-5.58-3.09-7.47s-4.84-3.21-7.47-3.09c-5.78.26-10.49,4.64-10.56,10.56h0Z" class="cls-1"></path>
        <circle r="23.64" cy="642.56" cx="1245.88" class="cls-1"></circle>
        <circle r="23.64" cy="642.56" cx="1589.95" class="cls-1"></circle>
      </g>
      <rect transform="translate(-31.98 65.58) rotate(-2.2)" ry="85.38" rx="85.38" height="170.76" width="252.96" y="780.69" x="1566.28" class="cls-3"></rect>
      <rect ry="85.38" rx="85.38" height="170.76" width="252.96" y="759.99" x="244.67" class="cls-3"></rect>
    </g>
    <path d="m330.78,1597.96h8.51l4.78-24.19,33.67-42.75h-10.33l-26.5,33.86-5.83-15.12-6.98-18.74h-8.89l16.54,42.47-4.97,24.48Z"></path>
    <path d="m397.62,1599.2c15.02,0,27.83-10.52,30.8-25.44,3.06-15.59-6.12-26.69-21.62-26.69s-27.83,10.52-30.79,25.44c-3.06,15.59,6.12,26.68,21.61,26.68Zm-13.58-25.63c2.1-10.71,11.48-18.85,22.28-18.85,10.24,0,16.07,7.56,14.06,17.99-2.1,10.71-11.48,18.74-22.19,18.74s-16.16-7.46-14.15-17.88Z"></path>
    <path d="m457.58,1599.2c7.08,0,13.48-2.87,18.37-7.94l-.48,6.69h6.5l9.95-49.64h-8.22l-4.88,24.68c-2.2,10.9-10.33,18.46-19.9,18.46-8.32,0-11.86-5.74-9.85-15.97l5.45-27.17h-8.22l-5.36,27.26c-2.87,14.25,3.63,23.62,16.64,23.62Z"></path>
    <path d="m499.74,1597.96h8.22l4.59-22.66c2.77-14.15,11-19.52,20.08-19.52h4.5l1.53-7.46h-4.88c-8.32,0-13.67,2.49-18.36,8.22l.77-8.22h-6.5l-9.95,49.64Z"></path>
    <path d="m566.01,1597.96h8.61l5.74-28.5,4.78-22.77,15.49,33.48h6.89l28.4-32.9-4.69,22.19-5.64,28.5h8.51l13.39-66.95h-8.22l-34.14,39.69-18.37-39.69h-7.36l-13.39,66.95Z"></path>
    <path d="m674.54,1599.2c11.19,0,21.52-5.93,27.36-15.87l-9.75-.1c-4.21,5.26-10.33,8.42-17.12,8.42-9.28,0-14.73-5.93-13.67-15.3h42.85c3.83-17.21-4.21-29.27-20.28-29.27-15.01,0-26.97,10.42-30.03,25.44-3.16,15.68,5.45,26.68,20.66,26.68Zm-11.38-29.93c3.44-8.61,11.19-14.64,20.46-14.64s13.97,5.36,13.78,14.64h-34.24Z"></path>
    <path d="m713.56,1597.96h8.22l4.88-24.77c2.2-10.81,10.42-18.46,20.08-18.46,8.42,0,12.06,5.84,10.05,15.98l-5.45,27.25h8.22l5.45-27.25c2.87-14.26-3.83-23.63-16.93-23.63-7.08,0-13.58,2.77-18.55,7.94l.48-6.69h-6.5l-9.95,49.64Z"></path>
    <path d="m798.18,1597.96h7.08l1.53-7.75h-7.36c-6.5,0-8.61-2.96-7.17-10.14l4.97-24.39h15.88l1.43-7.36h-15.88l2.49-12.34h-6.5l-2.01,6.31c-1.63,4.59-3.54,6.02-8.03,6.02h-4.59l-1.43,7.36h10.42l-4.88,24.01c-2.2,11.38,3.06,18.27,14.06,18.27Z"></path>
    <path d="m835.76,1598.72c7.75,0,14.25-2.49,19.52-7.36l-.48,6.6h6.51l6.31-31.17c2.2-11.39-5.55-19.71-18.46-19.71-11.19,0-20.46,6.22-23.62,15.5h8.8c2.2-4.98,7.84-8.04,14.63-8.04,8.33,0,12.06,4.41,10.53,12.06l-.48,2.2h-20.47c-10.71,0-17.79,5.07-19.51,13.87-2.01,10.04,4.3,16.07,16.74,16.07Zm-8.8-15.2c.86-4.88,4.97-7.65,11.48-7.65h19.32c-2.3,9.37-11.48,15.68-21.81,15.68-6.89,0-9.95-2.96-8.99-8.03Z"></path>
    <path d="m878.12,1597.96h8.22l14.15-70.77h-8.22l-14.15,70.77Z"></path>
    <path d="m942.48,1597.96h7.94l14.06-24.19,16.93-29.94,5.16,29.75,4.11,24.39h7.75l35.19-66.95h-9.28l-15.11,28.89-12.72,24.58-4.3-24.58-4.88-28.89h-7.84l-30.61,53.46-2.96-24.58-3.35-28.89h-8.42l8.32,66.95Z"></path>
    <path d="m1052.73,1599.2c11.19,0,21.52-5.93,27.36-15.87l-9.75-.1c-4.21,5.26-10.33,8.42-17.12,8.42-9.28,0-14.73-5.93-13.67-15.3h42.85c3.83-17.21-4.21-29.27-20.28-29.27-15.01,0-26.97,10.42-30.03,25.44-3.16,15.68,5.45,26.68,20.66,26.68Zm-11.38-29.93c3.44-8.61,11.19-14.64,20.46-14.64s13.97,5.36,13.78,14.64h-34.24Z"></path>
    <path d="m1091.74,1597.96h8.22l14.15-70.77h-8.22l-14.15,70.77Z"></path>
    <path d="m1117.75,1597.96h8.22l14.15-70.77h-8.22l-14.15,70.77Z"></path>
    <path d="m1171.21,1599.2c14.54,0,26.78-10.52,29.75-25.44,3.06-15.59-5.74-26.69-20.66-26.69-7.47,0-14.26,2.77-19.61,7.46l5.45-27.35h-8.22l-14.15,70.77h6.69l2.58-8.03c3.54,5.83,9.95,9.28,18.17,9.28Zm-14.63-25.63c2.1-10.71,11.48-18.85,22.28-18.85,10.24,0,16.07,7.56,14.06,17.99-2.1,10.81-11.48,18.74-22.19,18.74s-16.16-7.46-14.15-17.88Z"></path>
    <path d="m1231.74,1599.2c11.19,0,21.52-5.93,27.36-15.87l-9.75-.1c-4.21,5.26-10.33,8.42-17.12,8.42-9.28,0-14.73-5.93-13.67-15.3h42.85c3.83-17.21-4.21-29.27-20.28-29.27-15.01,0-26.97,10.42-30.03,25.44-3.16,15.68,5.45,26.68,20.66,26.68Zm-11.38-29.93c3.44-8.61,11.19-14.64,20.46-14.64s13.97,5.36,13.78,14.64h-34.24Z"></path>
    <path d="m1270.65,1597.96h8.22l9.95-49.64h-8.22l-9.95,49.64Zm10.61-64.75c-.77,3.92,1.53,6.89,5.64,6.89,3.63,0,6.31-2.3,6.98-5.64.77-3.92-1.53-6.89-5.64-6.89-3.63,0-6.31,2.3-6.98,5.64Z"></path>
    <path d="m1296.57,1597.96h8.22l4.88-24.77c2.2-10.81,10.42-18.46,20.08-18.46,8.42,0,12.06,5.84,10.05,15.98l-5.45,27.25h8.22l5.45-27.25c2.87-14.26-3.83-23.63-16.93-23.63-7.08,0-13.58,2.77-18.55,7.94l.48-6.69h-6.5l-9.95,49.64Z"></path>
    <path d="m1378.71,1618.33c14.25,0,25.25-8.7,28.03-22.86l9.37-47.15h-6.69l-2.1,7.08c-3.54-5.16-9.75-8.32-17.7-8.32-14.15,0-25.92,9.85-28.88,24.49-3.06,15.01,5.55,25.72,20.46,25.72,6.98,0,13.29-2.39,18.37-6.5l-.77,3.63c-2.01,9.85-10.14,16.45-20.28,16.45-7.65,0-12.24-3.73-12.62-10.14h-8.03c-.38,10.52,8.13,17.6,20.85,17.6Zm-9.95-45.71c2.01-10.33,11.09-17.89,21.52-17.89s15.79,7.08,13.78,17.03c-2.01,10.23-11,17.79-21.52,17.79-9.95,0-15.68-6.98-13.77-16.93Z"></path>
    <path d="m1448.51,1597.96h8.61l5.64-28.21h27.36l1.53-7.75h-27.36l4.59-23.15h29.84l1.53-7.84h-38.35l-13.39,66.95Z"></path>
    <path d="m1501.01,1597.96h8.22l4.59-22.66c2.77-14.15,11-19.52,20.08-19.52h4.5l1.53-7.46h-4.88c-8.32,0-13.67,2.49-18.36,8.22l.77-8.22h-6.5l-9.95,49.64Z"></path>
    <path d="m1542.6,1597.96h8.22l9.95-49.64h-8.22l-9.95,49.64Zm10.61-64.75c-.77,3.92,1.53,6.89,5.64,6.89,3.63,0,6.31-2.3,6.98-5.64.77-3.92-1.53-6.89-5.64-6.89-3.63,0-6.31,2.3-6.98,5.64Z"></path>
    <path d="m1590.32,1599.2c11.19,0,21.52-5.93,27.36-15.87l-9.75-.1c-4.21,5.26-10.33,8.42-17.12,8.42-9.28,0-14.73-5.93-13.67-15.3h42.85c3.83-17.21-4.21-29.27-20.28-29.27-15.01,0-26.97,10.42-30.03,25.44-3.16,15.68,5.45,26.68,20.66,26.68Zm-11.38-29.93c3.44-8.61,11.19-14.64,20.46-14.64s13.97,5.36,13.78,14.64h-34.24Z"></path>
    <path d="m1629.33,1597.96h8.22l4.88-24.77c2.2-10.81,10.42-18.46,20.08-18.46,8.42,0,12.06,5.84,10.05,15.98l-5.45,27.25h8.22l5.45-27.25c2.87-14.26-3.83-23.63-16.93-23.63-7.08,0-13.58,2.77-18.55,7.94l.48-6.69h-6.5l-9.95,49.64Z"></path>
    <path d="m296.92,1472.25c-5.67,0-10.42-1.87-14.26-5.63-3.85-3.77-5.77-8.16-5.77-13.17v-140.3c0-5.01,1.92-9.39,5.77-13.14,3.84-3.77,8.59-5.66,14.26-5.66s10.44,1.89,14.29,5.66c3.84,3.76,5.77,8.14,5.77,13.14v124.02h63.88c6.35,0,11.28,1.68,14.78,5.03,3.51,3.33,5.27,7.51,5.27,12.51s-1.76,9.19-5.27,12.54c-3.5,3.33-8.43,5-14.78,5h-83.93Z"></path>
    <path d="m438.48,1472.25c-5.67,0-10.42-1.87-14.26-5.63-3.85-3.77-5.77-8.16-5.77-13.17v-137.79c0-5.01,1.92-9.39,5.77-13.14,3.84-3.77,8.59-5.66,14.26-5.66h96.48c6.34,0,11.26,1.68,14.78,5.03,3.51,3.33,5.27,7.51,5.27,12.51s-1.76,9.19-5.27,12.54c-3.52,3.33-8.44,5-14.78,5h-76.42v35.08h53.88c6.34,0,11.26,1.67,14.75,5,3.51,3.33,5.27,7.51,5.27,12.54s-1.76,9.18-5.27,12.51c-3.5,3.33-8.42,5-14.75,5h-53.88v35.08h78.93c6.34,0,11.26,1.68,14.75,5.03,3.51,3.33,5.27,7.51,5.27,12.51s-1.76,9.19-5.27,12.54c-3.5,3.33-8.42,5-14.75,5h-98.99Z"></path>
    <path d="m586.31,1474.76c-5.68,0-10.45-1.88-14.29-5.63-3.83-3.77-5.74-8.16-5.74-13.17,0-1.51.25-3.35.74-5.52.51-2.17,1.09-4.25,1.75-6.26.67-2.33,1.51-4.67,2.51-7.02l47.6-122.76c2.68-7.01,6.31-12.52,10.9-16.53,4.59-4,10.98-6.01,19.18-6.01s14.56,2.01,19.15,6.01c4.59,4.01,8.22,9.52,10.9,16.53l47.6,122.76c1,2.35,1.84,4.69,2.51,7.02.67,2.01,1.26,4.09,1.75,6.26.51,2.17.77,4.01.77,5.52,0,5.01-1.93,9.4-5.77,13.17-3.85,3.75-8.61,5.63-14.29,5.63s-10.16-1.55-13.42-4.64c-3.24-3.09-5.87-7.39-7.87-12.9l-8.77-23.8h-65.14l-8.77,23.8c-2.01,5.51-4.64,9.8-7.9,12.9-3.27,3.09-7.73,4.64-13.42,4.64Zm83.93-76.42l-20.05-58.88h-2.49l-20.05,58.88h42.6Z"></path>
    <path d="m772.96,1474.76c-5.67,0-10.42-1.88-14.26-5.63-3.85-3.77-5.77-8.16-5.77-13.17v-142.81c0-5.01,1.95-9.39,5.87-13.14,3.93-3.77,9.07-5.66,15.41-5.66,5.68,0,10.44,1.68,14.29,5.03,3.84,3.33,7.43,7.51,10.77,12.51l58.88,88.96h2.51v-87.71c0-5.01,1.92-9.39,5.77-13.14,3.84-3.77,8.61-5.66,14.29-5.66s10.42,1.89,14.26,5.66c3.84,3.76,5.77,8.14,5.77,13.14v142.81c0,5.18-1.97,9.6-5.9,13.28-3.92,3.67-9.04,5.52-15.38,5.52-5.68,0-10.45-1.67-14.29-5-3.85-3.35-7.43-7.53-10.77-12.54l-58.88-88.96h-2.51v87.71c0,5.01-1.93,9.4-5.77,13.17-3.85,3.75-8.61,5.63-14.29,5.63Z"></path>
    <path d="m1076.14,1477.25c-11.37,0-21.74-1.83-31.09-5.49-9.34-3.67-17.36-8.77-24.04-15.27-6.67-6.52-11.89-14.21-15.66-23.06-3.76-8.85-5.63-18.46-5.63-28.83v-40.08c0-10.36,1.87-19.97,5.63-28.83,3.77-8.85,8.99-16.53,15.66-23.03,6.68-6.52,14.7-11.61,24.04-15.27,9.36-3.67,19.73-5.52,31.09-5.52s21.49,1.84,30.93,5.52c9.45,3.66,17.51,8.76,24.18,15.27,6.68,6.5,11.9,14.18,15.66,23.03,3.77,8.85,5.66,18.46,5.66,28.83v40.08c0,10.37-1.89,19.97-5.66,28.83-3.76,8.85-8.98,16.54-15.66,23.06-6.67,6.5-14.73,11.6-24.18,15.27-9.44,3.66-19.75,5.49-30.93,5.49Zm0-35.05c10.69,0,19.21-3.26,25.55-9.78,6.35-6.52,9.54-15.79,9.54-27.81v-40.08c0-12.02-3.18-21.29-9.54-27.81-6.34-6.52-14.86-9.78-25.55-9.78s-19.22,3.27-25.57,9.78c-6.34,6.52-9.51,15.79-9.51,27.81v40.08c0,12.02,3.17,21.3,9.51,27.81,6.35,6.52,14.88,9.78,25.57,9.78Z"></path>
    <path d="m1205.16,1474.76c-5.67,0-10.42-1.88-14.26-5.63-3.85-3.77-5.77-8.16-5.77-13.17v-142.81c0-5.01,1.95-9.39,5.87-13.14,3.93-3.77,9.07-5.66,15.41-5.66,5.68,0,10.44,1.68,14.29,5.03,3.84,3.33,7.43,7.51,10.77,12.51l58.88,88.96h2.51v-87.71c0-5.01,1.92-9.39,5.77-13.14,3.84-3.77,8.61-5.66,14.29-5.66s10.42,1.89,14.26,5.66c3.84,3.76,5.77,8.14,5.77,13.14v142.81c0,5.18-1.97,9.6-5.9,13.28-3.92,3.67-9.04,5.52-15.38,5.52-5.68,0-10.45-1.67-14.29-5-3.85-3.35-7.43-7.53-10.77-12.54l-58.88-88.96h-2.51v87.71c0,5.01-1.93,9.4-5.77,13.17-3.85,3.75-8.61,5.63-14.29,5.63Z"></path>
    <path d="m1454.45,1474.76c-5.67,0-10.42-1.88-14.26-5.63-3.85-3.77-5.77-8.16-5.77-13.17v-140.3c0-5.68,2.17-10.66,6.5-14.92,4.35-4.26,9.7-6.39,16.04-6.39,7.01,0,12.73,1.89,17.16,5.66,4.43,3.76,7.9,8.14,10.41,13.14l45.08,90.19h2.51l45.11-90.19c2.49-5.01,5.96-9.39,10.38-13.14,4.43-3.77,10.14-5.66,17.16-5.66,6.35,0,11.7,2.13,16.04,6.39,4.35,4.26,6.53,9.24,6.53,14.92v140.3c0,5.01-1.93,9.4-5.77,13.17-3.85,3.75-8.61,5.63-14.29,5.63s-10.45-1.88-14.29-5.63c-3.83-3.77-5.74-8.16-5.74-13.17v-80.16h-2.51l-30.08,60.11c-2.83,5.68-6.08,10.24-9.75,13.66-3.68,3.43-8.36,5.14-14.04,5.14s-10.34-1.71-14.02-5.14c-3.68-3.42-6.94-7.98-9.78-13.66l-30.05-60.11h-2.51v80.16c0,5.01-1.93,9.4-5.77,13.17-3.85,3.75-8.61,5.63-14.29,5.63Z"></path>
    <path d="m1682.45,1472.25c-5.67,0-10.42-1.87-14.26-5.63-3.85-3.77-5.77-8.16-5.77-13.17v-137.79c0-5.01,1.92-9.39,5.77-13.14,3.84-3.77,8.59-5.66,14.26-5.66h96.48c6.34,0,11.26,1.68,14.78,5.03,3.51,3.33,5.27,7.51,5.27,12.51s-1.76,9.19-5.27,12.54c-3.52,3.33-8.44,5-14.78,5h-76.42v35.08h53.88c6.34,0,11.26,1.67,14.75,5,3.51,3.33,5.27,7.51,5.27,12.54s-1.76,9.18-5.27,12.51c-3.5,3.33-8.42,5-14.75,5h-53.88v35.08h78.93c6.34,0,11.26,1.68,14.75,5.03,3.51,3.33,5.27,7.51,5.27,12.51s-1.76,9.19-5.27,12.54c-3.5,3.33-8.42,5-14.75,5h-98.99Z"></path>
  </g>
</svg>