<svg version="1.0" preserveAspectRatio="xMidYMid meet" height="720" viewBox="0 0 1440 540.000001" zoomAndPan="magnify" width="1920" xmlns:xlink="http://www.w3.org/1999/xlink" xmlns="http://www.w3.org/2000/svg"><defs><g></g><clipPath id="390ed313fc"><path clip-rule="nonzero" d="M 1.332031 0 L 1438.667969 0 L 1438.667969 539 L 1.332031 539 Z M 1.332031 0"></path></clipPath><clipPath id="68e7cea45e"><path clip-rule="nonzero" d="M 388.582031 184.03125 L 1051.640625 184.03125 L 1051.640625 354.972656 L 388.582031 354.972656 Z M 388.582031 184.03125"></path></clipPath><clipPath id="7ba2df2e71"><path clip-rule="nonzero" d="M 1051.417969 206.320312 L 1051.417969 332.679688 C 1051.417969 344.988281 1041.367188 354.972656 1029.128906 354.972656 L 410.871094 354.972656 C 398.5625 354.972656 388.582031 344.988281 388.582031 332.75 L 388.582031 206.320312 C 388.582031 194.015625 398.5625 184.03125 410.871094 184.03125 L 1029.128906 184.03125 C 1041.4375 184.03125 1051.417969 194.015625 1051.417969 206.320312 Z M 1051.417969 206.320312"></path></clipPath><clipPath id="c597c4573a"><path clip-rule="nonzero" d="M 389.25 213.410156 L 1050.308594 213.410156 L 1050.308594 354 L 389.25 354 Z M 389.25 213.410156"></path></clipPath><clipPath id="eec4b23cc0"><path clip-rule="nonzero" d="M 1050.1875 332.679688 C 1050.1875 344.304688 1040.753906 353.742188 1029.128906 353.742188 L 410.871094 353.742188 C 399.246094 353.742188 389.8125 344.304688 389.8125 332.679688 L 389.8125 213.570312 L 1050.1875 213.570312 Z M 1050.1875 332.679688"></path></clipPath><clipPath id="8c5e0373c3"><path clip-rule="nonzero" d="M 389.25 185 L 1050.308594 185 L 1050.308594 212.742188 L 389.25 212.742188 Z M 389.25 185"></path></clipPath><clipPath id="63d189b531"><path clip-rule="nonzero" d="M 1029.128906 185.261719 L 410.871094 185.261719 C 399.246094 185.261719 389.8125 194.699219 389.8125 206.320312 L 389.8125 212.339844 L 1050.1875 212.339844 L 1050.1875 206.320312 C 1050.1875 194.699219 1040.753906 185.261719 1029.128906 185.261719 Z M 419.964844 204.75 C 419.964844 205.089844 419.691406 205.363281 419.351562 205.363281 L 407.109375 205.363281 C 406.769531 205.363281 406.496094 205.089844 406.496094 204.75 L 406.496094 192.578125 C 406.496094 192.234375 406.769531 191.960938 407.109375 191.960938 L 419.351562 191.960938 C 419.691406 191.960938 419.964844 192.234375 419.964844 192.578125 Z M 438.5625 204.75 C 438.5625 205.089844 438.289062 205.363281 437.949219 205.363281 L 425.710938 205.363281 C 425.367188 205.363281 425.09375 205.089844 425.09375 204.75 L 425.09375 192.578125 C 425.09375 192.234375 425.367188 191.960938 425.710938 191.960938 L 437.949219 191.960938 C 438.289062 191.960938 438.5625 192.234375 438.5625 192.578125 Z M 457.164062 204.75 C 457.164062 205.089844 456.890625 205.363281 456.546875 205.363281 L 444.375 205.363281 C 444.035156 205.363281 443.761719 205.089844 443.761719 204.75 L 443.761719 192.578125 C 443.761719 192.234375 444.035156 191.960938 444.375 191.960938 L 456.617188 191.960938 C 456.890625 191.960938 457.164062 192.234375 457.230469 192.578125 L 457.230469 204.75 Z M 1031.933594 197.570312 L 1028.71875 200.644531 L 1029.46875 205.023438 C 1029.539062 205.226562 1029.402344 205.5 1029.265625 205.570312 C 1029.128906 205.636719 1029.058594 205.707031 1028.921875 205.707031 C 1028.785156 205.707031 1028.785156 205.707031 1028.648438 205.636719 L 1024.683594 203.585938 L 1020.71875 205.636719 C 1020.511719 205.707031 1020.238281 205.707031 1020.101562 205.570312 C 1019.964844 205.433594 1019.828125 205.226562 1019.828125 205.023438 L 1020.582031 200.644531 L 1017.367188 197.570312 C 1017.230469 197.433594 1017.164062 197.160156 1017.230469 196.953125 C 1017.300781 196.75 1017.4375 196.542969 1017.710938 196.542969 L 1022.085938 195.859375 L 1024 191.894531 C 1024.207031 191.484375 1024.890625 191.484375 1025.09375 191.894531 L 1027.078125 195.859375 L 1031.453125 196.542969 C 1031.726562 196.542969 1031.863281 196.679688 1032.070312 196.953125 C 1032.136719 197.160156 1032.070312 197.363281 1031.933594 197.570312 Z M 1031.933594 197.570312"></path></clipPath><clipPath id="6e966ab172"><path clip-rule="nonzero" d="M 407.277344 193 L 1030.273438 193 L 1030.273438 204.730469 L 407.277344 204.730469 Z M 407.277344 193"></path></clipPath><clipPath id="a5dffb3093"><path clip-rule="nonzero" d="M 426.394531 193.191406 L 426.394531 204.203125 L 437.402344 204.203125 L 437.402344 193.191406 Z M 435.828125 202.082031 C 435.828125 202.425781 435.554688 202.699219 435.214844 202.699219 L 428.445312 202.699219 C 428.101562 202.699219 427.828125 202.425781 427.828125 202.082031 L 427.828125 195.3125 C 427.828125 194.972656 428.101562 194.699219 428.445312 194.699219 L 435.214844 194.699219 C 435.554688 194.699219 435.828125 194.972656 435.828125 195.3125 Z M 429.058594 195.929688 L 434.597656 195.929688 L 434.597656 197.160156 L 429.058594 197.160156 Z M 407.726562 193.191406 L 407.726562 204.203125 L 418.734375 204.203125 L 418.734375 193.191406 Z M 416.890625 201.398438 C 417.164062 201.671875 417.164062 202.015625 416.890625 202.21875 C 416.820312 202.289062 416.613281 202.355469 416.476562 202.355469 C 416.339844 202.355469 416.136719 202.289062 416.066406 202.21875 L 413.265625 199.484375 L 410.53125 202.21875 C 410.460938 202.289062 410.257812 202.355469 410.121094 202.355469 C 409.984375 202.355469 409.777344 202.289062 409.710938 202.21875 C 409.574219 202.015625 409.574219 201.601562 409.777344 201.398438 L 412.582031 198.664062 L 409.777344 195.859375 C 409.574219 195.65625 409.574219 195.246094 409.777344 195.039062 C 410.050781 194.835938 410.394531 194.835938 410.597656 195.039062 L 413.402344 197.84375 L 416.136719 195.039062 C 416.410156 194.835938 416.75 194.835938 416.957031 195.039062 C 417.230469 195.3125 417.230469 195.65625 416.957031 195.859375 L 414.222656 198.664062 Z M 429.058594 198.320312 L 434.597656 198.320312 L 434.597656 201.464844 L 429.058594 201.464844 Z M 1027.554688 200.03125 C 1027.417969 200.167969 1027.351562 200.371094 1027.417969 200.578125 L 1027.964844 204.066406 L 1024.890625 202.425781 C 1024.753906 202.355469 1024.546875 202.355469 1024.34375 202.425781 L 1021.265625 204.066406 L 1021.8125 200.578125 C 1021.8125 200.371094 1021.8125 200.167969 1021.675781 200.03125 L 1019.144531 197.570312 L 1022.632812 197.023438 C 1022.835938 197.023438 1022.972656 196.886719 1023.109375 196.679688 L 1024.683594 193.535156 L 1026.257812 196.679688 C 1026.394531 196.816406 1026.53125 197.023438 1026.734375 197.023438 L 1030.222656 197.570312 Z M 444.992188 193.191406 L 444.992188 204.203125 L 456 204.203125 L 456 193.191406 Z M 454.496094 202.492188 L 446.496094 202.492188 C 446.152344 202.492188 445.878906 202.21875 445.878906 201.878906 C 445.878906 201.535156 446.152344 201.261719 446.496094 201.261719 L 454.425781 201.261719 C 454.769531 201.261719 455.042969 201.535156 455.042969 201.878906 C 455.042969 202.21875 454.835938 202.492188 454.496094 202.492188 Z M 454.496094 202.492188"></path></clipPath><clipPath id="07a7230c39"><path clip-rule="nonzero" d="M 927.148438 155.140625 L 1016 155.140625 L 1016 237 L 927.148438 237 Z M 927.148438 155.140625"></path></clipPath><clipPath id="977f51e5ba"><path clip-rule="nonzero" d="M 977 177 L 1059.652344 177 L 1059.652344 259 L 977 259 Z M 977 177"></path></clipPath></defs><g clip-path="url(#390ed313fc)"><path fill-rule="nonzero" fill-opacity="1" d="M 1.332031 0 L 1438.667969 0 L 1438.667969 539 L 1.332031 539 Z M 1.332031 0" fill="#ffffff"></path><path fill-rule="nonzero" fill-opacity="1" d="M 1.332031 0 L 1438.667969 0 L 1438.667969 539 L 1.332031 539 Z M 1.332031 0" fill="#ffbd59"></path></g><g clip-path="url(#68e7cea45e)"><g clip-path="url(#7ba2df2e71)"><path fill-rule="nonzero" fill-opacity="1" d="M 388.582031 184.03125 L 1051.640625 184.03125 L 1051.640625 354.972656 L 388.582031 354.972656 Z M 388.582031 184.03125" fill="#1b1464"></path></g></g><g clip-path="url(#c597c4573a)"><g clip-path="url(#eec4b23cc0)"><path fill-rule="nonzero" fill-opacity="1" d="M 388.582031 184.03125 L 1051.640625 184.03125 L 1051.640625 354.972656 L 388.582031 354.972656 Z M 388.582031 184.03125" fill="#ffffff"></path></g></g><g clip-path="url(#8c5e0373c3)"><g clip-path="url(#63d189b531)"><path fill-rule="nonzero" fill-opacity="1" d="M 388.582031 184.03125 L 1051.640625 184.03125 L 1051.640625 354.972656 L 388.582031 354.972656 Z M 388.582031 184.03125" fill="#b91823"></path></g></g><g clip-path="url(#6e966ab172)"><g clip-path="url(#a5dffb3093)"><path fill-rule="nonzero" fill-opacity="1" d="M 388.582031 184.03125 L 1051.640625 184.03125 L 1051.640625 354.972656 L 388.582031 354.972656 Z M 388.582031 184.03125" fill="#ffbd59"></path></g></g><g clip-path="url(#07a7230c39)"><path fill-rule="nonzero" fill-opacity="1" d="M 967.578125 155.152344 C 964.171875 155.152344 949.816406 159.875 941.054688 165.390625 C 936.59375 169.773438 933.585938 174.417969 929.230469 180.621094 C 927.148438 185.238281 927.648438 195.636719 927.648438 202.101562 C 929.546875 207.089844 933.242188 214.425781 935.566406 217.300781 L 931.765625 227.992188 C 931.765625 227.992188 927.542969 236.144531 929.335938 236.144531 C 931.132812 236.144531 938.152344 234.5625 938.152344 234.5625 L 949.894531 228.625 C 956.042969 231.554688 962.535156 233.164062 966.285156 233.71875 C 972.722656 234.035156 992.332031 228.941406 992.332031 228.941406 C 992.332031 228.941406 999.800781 224.242188 1003.945312 220.679688 C 1009.539062 213.078125 1015.425781 195.476562 1015.425781 194.183594 C 1015.425781 192.890625 1012.152344 176.449219 1008.484375 172.886719 C 1006.027344 170.484375 997.875 162.199219 997.875 162.199219 C 997.875 162.199219 977.816406 156.261719 967.578125 155.203125 Z M 967.578125 155.152344" fill="#f28b8e"></path></g><g clip-path="url(#977f51e5ba)"><path fill-rule="nonzero" fill-opacity="1" d="M 1051.183594 240.128906 L 1052.265625 244.484375 C 1052.265625 244.484375 1053.425781 248.445312 1054.21875 250.582031 C 1056.199219 254.59375 1058.46875 259.105469 1057.410156 258.945312 C 1055.0625 258.628906 1048.542969 256.148438 1045.085938 255.488281 C 1041.65625 254.804688 1036.0625 251.925781 1036.0625 251.925781 C 1029.121094 254.566406 1024.84375 255.9375 1015.425781 256.519531 C 1007.902344 256.148438 997.476562 253.984375 995.207031 252.929688 C 992.9375 251.847656 983.992188 243.851562 977.472656 237.175781 C 985.496094 236.222656 999.21875 229.414062 999.21875 229.414062 L 1012.730469 217.222656 L 1016.03125 209.597656 L 1019.222656 194.183594 C 1019.222656 194.183594 1017.90625 182.625 1015.53125 177.480469 C 1022.601562 178.007812 1032.65625 180.621094 1032.65625 180.621094 L 1050.707031 193.3125 C 1050.707031 193.3125 1056.804688 204.503906 1057.886719 207.195312 C 1058.96875 209.886719 1059.523438 217.011719 1059.523438 217.011719 L 1056.25 231.976562 C 1056.25 231.976562 1053.214844 237.648438 1051.15625 240.15625 Z M 1051.183594 240.128906" fill="#5099d2"></path></g><path fill-rule="nonzero" fill-opacity="1" d="M 978.792969 192.679688 C 978.714844 193.074219 978.371094 194.84375 978.320312 195.027344 C 977.949219 196.164062 976.972656 199.039062 976.578125 199.25 C 975.835938 199.699219 972.671875 201.070312 971.957031 201.070312 C 971.296875 201.070312 969.6875 200.941406 968.6875 200.542969 C 968.027344 200.28125 967.367188 200.042969 966.785156 199.882812 C 965.703125 199.59375 964.464844 197.007812 964.171875 196.613281 C 963.804688 196.058594 963.644531 195.1875 963.644531 194.238281 C 963.644531 192.757812 963.988281 191.097656 964.359375 190.226562 C 964.992188 188.746094 967.394531 186.214844 968.371094 185.792969 C 969.320312 185.371094 973.4375 186.347656 973.910156 186.476562 L 973.9375 186.476562 C 974.015625 186.53125 975.996094 187.324219 977.394531 188.535156 C 978.847656 189.777344 978.792969 192.546875 978.792969 192.652344 Z M 978.792969 192.679688" fill="#ffffff"></path><path fill-rule="nonzero" fill-opacity="1" d="M 959.660156 196.375 C 959.238281 197.351562 956.703125 199.726562 955.226562 200.386719 C 954.355469 200.753906 952.71875 201.097656 951.214844 201.097656 C 949.710938 201.097656 949.367188 200.941406 948.839844 200.570312 C 948.445312 200.308594 948.046875 200.09375 947.625 199.910156 C 946.703125 199.460938 945.859375 199.066406 945.566406 197.984375 C 945.410156 197.402344 945.171875 196.742188 944.90625 196.085938 C 944.511719 195.082031 944.140625 194.132812 944.140625 193.472656 C 944.140625 192.757812 945.910156 189.617188 946.28125 189.25 C 947.414062 188.140625 949.605469 186.742188 950.449219 186.453125 C 950.660156 186.371094 952.402344 186.03125 952.773438 185.976562 L 952.796875 185.976562 C 952.902344 185.976562 955.675781 185.921875 956.914062 187.375 C 958.128906 188.773438 958.921875 190.726562 958.949219 190.832031 C 959.054688 191.332031 960.03125 195.449219 959.632812 196.402344 Z M 959.660156 196.375" fill="#ffffff"></path><path fill-rule="nonzero" fill-opacity="1" d="M 989.957031 186.503906 C 989.957031 186.503906 985.734375 187.03125 984.46875 188.828125 C 983.199219 190.621094 981.90625 191.703125 982.066406 193.839844 C 982.171875 195.292969 982.433594 197.5625 982.621094 197.90625 C 982.804688 198.25 983.992188 199.59375 984.519531 200.042969 C 985.390625 200.808594 986.550781 201.125 987.660156 201.363281 C 988.769531 201.601562 989.667969 201.785156 990.933594 201.519531 C 992.199219 201.257812 993.730469 200.519531 994.785156 199.777344 C 995.5 199.304688 996.289062 198.828125 996.421875 198.328125 C 996.792969 197.085938 997.53125 196.191406 997.160156 193.472656 C 997.03125 192.519531 996.605469 191.148438 996.605469 191.148438 C 996.605469 191.148438 995.5 189.195312 994.996094 188.484375 C 994.785156 188.195312 993.96875 187.480469 992.964844 187.113281 C 991.566406 186.582031 989.902344 186.453125 989.902344 186.453125 Z M 989.957031 186.503906" fill="#ffffff"></path><g fill-opacity="1" fill="#c43b40"><g transform="translate(555.101848, 289.466305)"><g><path d="M 3.390625 -42.453125 L 38.578125 -42.453125 L 38.578125 -40.28125 L 15.125 -1.28125 L 23.984375 -1.28125 C 25.578125 -1.28125 27.109375 -1.359375 28.578125 -1.515625 C 30.046875 -1.671875 31.671875 -1.992188 33.453125 -2.484375 C 35.242188 -2.984375 37.410156 -3.765625 39.953125 -4.828125 L 37.734375 0 L 2.65625 0 L 2.65625 -2.171875 L 26.046875 -41.171875 L 18.3125 -41.171875 C 16.675781 -41.171875 14.894531 -40.976562 12.96875 -40.59375 C 11.039062 -40.207031 9.015625 -39.21875 6.890625 -37.625 Z M 3.390625 -42.453125"></path></g></g></g><g fill-opacity="1" fill="#c43b40"><g transform="translate(597.716287, 289.466305)"><g><path d="M 42.34375 -30.609375 L 42.34375 -11.828125 C 42.34375 -10.023438 42.367188 -8.476562 42.421875 -7.1875 C 42.472656 -5.894531 42.539062 -4.691406 42.625 -3.578125 C 42.71875 -2.460938 42.835938 -1.269531 42.984375 0 L 30.71875 0 C 30.894531 -1.269531 31.023438 -2.460938 31.109375 -3.578125 C 31.203125 -4.691406 31.265625 -5.894531 31.296875 -7.1875 C 31.335938 -8.476562 31.359375 -10.023438 31.359375 -11.828125 L 31.359375 -20.59375 L 15.328125 -20.59375 L 15.328125 -11.828125 C 15.328125 -10.023438 15.34375 -8.476562 15.375 -7.1875 C 15.414062 -5.894531 15.488281 -4.691406 15.59375 -3.578125 C 15.707031 -2.460938 15.832031 -1.269531 15.96875 0 L 3.71875 0 C 3.894531 -1.269531 4.023438 -2.460938 4.109375 -3.578125 C 4.203125 -4.691406 4.265625 -5.894531 4.296875 -7.1875 C 4.328125 -8.476562 4.34375 -10.023438 4.34375 -11.828125 L 4.34375 -30.609375 C 4.34375 -32.453125 4.328125 -34.007812 4.296875 -35.28125 C 4.265625 -36.5625 4.203125 -37.757812 4.109375 -38.875 C 4.023438 -39.988281 3.894531 -41.179688 3.71875 -42.453125 L 15.96875 -42.453125 C 15.832031 -41.179688 15.707031 -39.988281 15.59375 -38.875 C 15.488281 -37.757812 15.414062 -36.5625 15.375 -35.28125 C 15.34375 -34.007812 15.328125 -32.453125 15.328125 -30.609375 L 15.328125 -21.859375 L 31.359375 -21.859375 L 31.359375 -30.609375 C 31.359375 -32.453125 31.335938 -34.007812 31.296875 -35.28125 C 31.265625 -36.5625 31.203125 -37.757812 31.109375 -38.875 C 31.023438 -39.988281 30.894531 -41.179688 30.71875 -42.453125 L 42.984375 -42.453125 C 42.835938 -41.179688 42.71875 -39.988281 42.625 -38.875 C 42.539062 -37.757812 42.472656 -36.5625 42.421875 -35.28125 C 42.367188 -34.007812 42.34375 -32.453125 42.34375 -30.609375 Z M 42.34375 -30.609375"></path></g></g></g><g fill-opacity="1" fill="#c43b40"><g transform="translate(644.41704, 289.466305)"><g><path d="M 3.71875 -42.453125 L 34.65625 -42.453125 L 31.203125 -37.46875 C 29.046875 -39.050781 27.007812 -40.0625 25.09375 -40.5 C 23.1875 -40.945312 21.398438 -41.171875 19.734375 -41.171875 L 15.328125 -41.171875 L 15.328125 -22.921875 L 17.875 -22.921875 C 19.289062 -22.921875 20.796875 -22.945312 22.390625 -23 C 23.984375 -23.050781 26.019531 -23.203125 28.5 -23.453125 L 28.5 -21.125 C 26.019531 -21.40625 23.984375 -21.5625 22.390625 -21.59375 C 20.796875 -21.632812 19.289062 -21.65625 17.875 -21.65625 L 15.328125 -21.65625 L 15.328125 -1.28125 L 19.3125 -1.28125 C 20.757812 -1.28125 22.066406 -1.3125 23.234375 -1.375 C 24.410156 -1.445312 25.582031 -1.609375 26.75 -1.859375 C 27.914062 -2.109375 29.210938 -2.46875 30.640625 -2.9375 C 32.078125 -3.414062 33.75 -4.046875 35.65625 -4.828125 L 33.484375 0 L 3.71875 0 C 3.894531 -1.269531 4.023438 -2.460938 4.109375 -3.578125 C 4.203125 -4.691406 4.273438 -5.894531 4.328125 -7.1875 C 4.378906 -8.476562 4.40625 -10.023438 4.40625 -11.828125 L 4.40625 -30.609375 C 4.40625 -32.453125 4.378906 -34.007812 4.328125 -35.28125 C 4.273438 -36.5625 4.203125 -37.757812 4.109375 -38.875 C 4.023438 -39.988281 3.894531 -41.179688 3.71875 -42.453125 Z M 3.71875 -42.453125"></path></g></g></g><g fill-opacity="1" fill="#c43b40"><g transform="translate(681.67151, 289.466305)"><g><path d="M 3.71875 0 C 3.894531 -1.269531 4.023438 -2.460938 4.109375 -3.578125 C 4.203125 -4.691406 4.265625 -5.894531 4.296875 -7.1875 C 4.328125 -8.476562 4.34375 -10.023438 4.34375 -11.828125 L 4.34375 -30.609375 C 4.34375 -32.453125 4.328125 -34.007812 4.296875 -35.28125 C 4.265625 -36.5625 4.203125 -37.757812 4.109375 -38.875 C 4.023438 -39.988281 3.894531 -41.179688 3.71875 -42.453125 L 16.984375 -42.453125 L 37.625 -2.703125 L 38 -2.65625 L 38 -30.609375 C 38 -32.453125 37.96875 -34.007812 37.90625 -35.28125 C 37.851562 -36.5625 37.78125 -37.757812 37.6875 -38.875 C 37.601562 -39.988281 37.492188 -41.179688 37.359375 -42.453125 L 39.75 -42.453125 C 39.601562 -41.179688 39.476562 -39.988281 39.375 -38.875 C 39.269531 -37.757812 39.195312 -36.5625 39.15625 -35.28125 C 39.125 -34.007812 39.109375 -32.453125 39.109375 -30.609375 L 39.109375 -11.828125 C 39.109375 -10.023438 39.125 -8.476562 39.15625 -7.1875 C 39.195312 -5.894531 39.269531 -4.691406 39.375 -3.578125 C 39.476562 -2.460938 39.601562 -1.269531 39.75 0 L 26.484375 0 L 5.84375 -39.75 L 5.46875 -39.796875 L 5.46875 -11.828125 C 5.46875 -10.023438 5.484375 -8.476562 5.515625 -7.1875 C 5.554688 -5.894531 5.628906 -4.691406 5.734375 -3.578125 C 5.835938 -2.460938 5.960938 -1.269531 6.109375 0 Z M 3.71875 0"></path></g></g></g><g fill-opacity="1" fill="#c43b40"><g transform="translate(725.135066, 289.466305)"><g><path d="M 49.078125 -20.0625 L 44.890625 -20.0625 L 44.890625 -11.78125 C 44.890625 -9.726562 44.953125 -7.742188 45.078125 -5.828125 C 45.203125 -3.921875 45.390625 -1.976562 45.640625 0 L 42.125 0 C 42.414062 -1.976562 42.613281 -3.921875 42.71875 -5.828125 C 42.820312 -7.742188 42.875 -9.726562 42.875 -11.78125 L 42.875 -13 C 42.164062 -10.207031 41.085938 -7.75 39.640625 -5.625 C 38.191406 -3.5 36.304688 -1.851562 33.984375 -0.6875 C 31.671875 0.476562 28.816406 1.0625 25.421875 1.0625 C 22.160156 1.0625 19.164062 0.523438 16.4375 -0.546875 C 13.71875 -1.628906 11.367188 -3.171875 9.390625 -5.171875 C 7.410156 -7.171875 5.878906 -9.578125 4.796875 -12.390625 C 3.722656 -15.203125 3.1875 -18.320312 3.1875 -21.75 C 3.1875 -25.21875 3.785156 -28.296875 4.984375 -30.984375 C 6.191406 -33.671875 7.851562 -35.941406 9.96875 -37.796875 C 12.09375 -39.660156 14.539062 -41.078125 17.3125 -42.046875 C 20.09375 -43.023438 23.0625 -43.515625 26.21875 -43.515625 C 29.394531 -43.515625 32.226562 -42.988281 34.71875 -41.9375 C 37.21875 -40.894531 39.382812 -39.472656 41.21875 -37.671875 C 43.0625 -35.867188 44.585938 -33.78125 45.796875 -31.40625 L 35.765625 -28.59375 C 35.410156 -31.144531 34.851562 -33.445312 34.09375 -35.5 C 33.332031 -37.550781 32.3125 -39.1875 31.03125 -40.40625 C 29.757812 -41.625 28.15625 -42.234375 26.21875 -42.234375 C 23.738281 -42.234375 21.664062 -41.347656 20 -39.578125 C 18.34375 -37.816406 17.085938 -35.441406 16.234375 -32.453125 C 15.390625 -29.460938 14.96875 -26.144531 14.96875 -22.5 C 14.96875 -18.75 15.476562 -15.332031 16.5 -12.25 C 17.53125 -9.175781 19.078125 -6.726562 21.140625 -4.90625 C 23.210938 -3.082031 25.820312 -2.171875 28.96875 -2.171875 C 31.726562 -2.171875 34.109375 -2.90625 36.109375 -4.375 C 38.109375 -5.84375 39.691406 -7.921875 40.859375 -10.609375 C 42.023438 -13.296875 42.695312 -16.445312 42.875 -20.0625 L 40.21875 -20.0625 C 38.59375 -20.0625 36.816406 -19.835938 34.890625 -19.390625 C 32.960938 -18.953125 30.9375 -17.9375 28.8125 -16.34375 L 25.3125 -21.328125 L 49.078125 -21.328125 Z M 49.078125 -20.0625"></path></g></g></g><g fill-opacity="1" fill="#c43b40"><g transform="translate(775.285296, 289.466305)"><g><path d="M 42.34375 -30.609375 L 42.34375 -11.828125 C 42.34375 -10.023438 42.367188 -8.476562 42.421875 -7.1875 C 42.472656 -5.894531 42.539062 -4.691406 42.625 -3.578125 C 42.71875 -2.460938 42.835938 -1.269531 42.984375 0 L 30.71875 0 C 30.894531 -1.269531 31.023438 -2.460938 31.109375 -3.578125 C 31.203125 -4.691406 31.265625 -5.894531 31.296875 -7.1875 C 31.335938 -8.476562 31.359375 -10.023438 31.359375 -11.828125 L 31.359375 -20.59375 L 15.328125 -20.59375 L 15.328125 -11.828125 C 15.328125 -10.023438 15.34375 -8.476562 15.375 -7.1875 C 15.414062 -5.894531 15.488281 -4.691406 15.59375 -3.578125 C 15.707031 -2.460938 15.832031 -1.269531 15.96875 0 L 3.71875 0 C 3.894531 -1.269531 4.023438 -2.460938 4.109375 -3.578125 C 4.203125 -4.691406 4.265625 -5.894531 4.296875 -7.1875 C 4.328125 -8.476562 4.34375 -10.023438 4.34375 -11.828125 L 4.34375 -30.609375 C 4.34375 -32.453125 4.328125 -34.007812 4.296875 -35.28125 C 4.265625 -36.5625 4.203125 -37.757812 4.109375 -38.875 C 4.023438 -39.988281 3.894531 -41.179688 3.71875 -42.453125 L 15.96875 -42.453125 C 15.832031 -41.179688 15.707031 -39.988281 15.59375 -38.875 C 15.488281 -37.757812 15.414062 -36.5625 15.375 -35.28125 C 15.34375 -34.007812 15.328125 -32.453125 15.328125 -30.609375 L 15.328125 -21.859375 L 31.359375 -21.859375 L 31.359375 -30.609375 C 31.359375 -32.453125 31.335938 -34.007812 31.296875 -35.28125 C 31.265625 -36.5625 31.203125 -37.757812 31.109375 -38.875 C 31.023438 -39.988281 30.894531 -41.179688 30.71875 -42.453125 L 42.984375 -42.453125 C 42.835938 -41.179688 42.71875 -39.988281 42.625 -38.875 C 42.539062 -37.757812 42.472656 -36.5625 42.421875 -35.28125 C 42.367188 -34.007812 42.34375 -32.453125 42.34375 -30.609375 Z M 42.34375 -30.609375"></path></g></g></g><g fill-opacity="1" fill="#c43b40"><g transform="translate(821.986059, 289.466305)"><g><path d="M 3.1875 -42.453125 L 15.4375 -42.453125 C 15.300781 -41.179688 15.175781 -39.988281 15.0625 -38.875 C 14.957031 -37.757812 14.882812 -36.5625 14.84375 -35.28125 C 14.8125 -34.007812 14.796875 -32.453125 14.796875 -30.609375 L 14.796875 -18.046875 C 14.796875 -13.972656 15.125 -10.6875 15.78125 -8.1875 C 16.4375 -5.695312 17.550781 -3.882812 19.125 -2.75 C 20.695312 -1.625 22.882812 -1.0625 25.6875 -1.0625 C 28.269531 -1.0625 30.410156 -1.59375 32.109375 -2.65625 C 33.804688 -3.71875 35.078125 -5.484375 35.921875 -7.953125 C 36.773438 -10.429688 37.203125 -13.796875 37.203125 -18.046875 L 37.203125 -30.609375 C 37.203125 -32.453125 37.171875 -34.007812 37.109375 -35.28125 C 37.054688 -36.5625 36.984375 -37.757812 36.890625 -38.875 C 36.804688 -39.988281 36.695312 -41.179688 36.5625 -42.453125 L 39.109375 -42.453125 C 38.960938 -41.179688 38.84375 -39.988281 38.75 -38.875 C 38.664062 -37.757812 38.597656 -36.5625 38.546875 -35.28125 C 38.492188 -34.007812 38.46875 -32.453125 38.46875 -30.609375 L 38.46875 -18.046875 C 38.46875 -13.410156 37.953125 -9.691406 36.921875 -6.890625 C 35.898438 -4.097656 34.300781 -2.070312 32.125 -0.8125 C 29.945312 0.4375 27.144531 1.0625 23.71875 1.0625 C 20.851562 1.0625 18.207031 0.773438 15.78125 0.203125 C 13.363281 -0.359375 11.257812 -1.335938 9.46875 -2.734375 C 7.6875 -4.128906 6.300781 -6.070312 5.3125 -8.5625 C 4.320312 -11.0625 3.828125 -14.222656 3.828125 -18.046875 L 3.828125 -30.609375 C 3.828125 -32.453125 3.804688 -34.007812 3.765625 -35.28125 C 3.734375 -36.5625 3.671875 -37.757812 3.578125 -38.875 C 3.492188 -39.988281 3.363281 -41.179688 3.1875 -42.453125 Z M 3.1875 -42.453125"></path></g></g></g><g fill-opacity="1" fill="#c43b40"><g transform="translate(864.282084, 289.466305)"><g><path d="M 36.34375 -6.6875 C 36.738281 -5.164062 37.128906 -3.9375 37.515625 -3 C 37.898438 -2.0625 38.378906 -1.0625 38.953125 0 L 25.890625 0 C 25.859375 -0.957031 25.785156 -1.757812 25.671875 -2.40625 C 25.566406 -3.0625 25.4375 -3.71875 25.28125 -4.375 C 25.125 -5.03125 24.921875 -5.800781 24.671875 -6.6875 L 22.390625 -15.015625 L 8.546875 -15.015625 L 6.15625 -6 C 5.90625 -5.007812 5.664062 -4.085938 5.4375 -3.234375 C 5.207031 -2.390625 5.054688 -1.3125 4.984375 0 L 2.65625 0 C 3.320312 -1.375 3.785156 -2.457031 4.046875 -3.25 C 4.316406 -4.050781 4.578125 -4.945312 4.828125 -5.9375 L 13.484375 -38.15625 C 13.691406 -39 13.820312 -39.703125 13.875 -40.265625 C 13.925781 -40.835938 13.8125 -41.566406 13.53125 -42.453125 L 26.578125 -42.453125 Z M 8.921875 -16.296875 L 22.015625 -16.296875 L 15.390625 -40.546875 Z M 8.921875 -16.296875"></path></g></g></g><g fill-opacity="1" fill="#0167b9"><g transform="translate(592.444238, 317.025989)"><g><path d="M 26.296875 -8.515625 C 26.503906 -8.515625 26.675781 -8.441406 26.8125 -8.296875 C 26.945312 -8.160156 27.015625 -7.992188 27.015625 -7.796875 C 27.015625 -7.597656 26.945312 -7.421875 26.8125 -7.265625 C 26.675781 -7.109375 26.503906 -7.03125 26.296875 -7.03125 C 25.160156 -7.03125 24.019531 -7.023438 22.875 -7.015625 C 21.726562 -7.003906 20.597656 -7 19.484375 -7 C 19.359375 -7 19.226562 -7 19.09375 -7 C 18.957031 -7 18.820312 -7 18.6875 -7 C 17.8125 -6.09375 16.878906 -5.132812 15.890625 -4.125 C 16.773438 -4.070312 17.640625 -4.007812 18.484375 -3.9375 C 19.328125 -3.863281 20.164062 -3.773438 21 -3.671875 C 21.207031 -3.671875 21.375 -3.585938 21.5 -3.421875 C 21.625 -3.253906 21.671875 -3.070312 21.640625 -2.875 C 21.597656 -2.445312 21.359375 -2.234375 20.921875 -2.234375 C 20.898438 -2.234375 20.863281 -2.234375 20.8125 -2.234375 C 19.800781 -2.359375 18.769531 -2.457031 17.71875 -2.53125 C 16.675781 -2.613281 15.625 -2.675781 14.5625 -2.71875 C 13.457031 -1.613281 12.398438 -0.554688 11.390625 0.453125 C 10.378906 1.460938 9.484375 2.34375 8.703125 3.09375 C 7.921875 3.851562 7.351562 4.382812 7 4.6875 C 6.875 4.8125 6.710938 4.875 6.515625 4.875 C 6.304688 4.875 6.128906 4.785156 5.984375 4.609375 C 5.859375 4.460938 5.800781 4.285156 5.8125 4.078125 C 5.820312 3.878906 5.90625 3.71875 6.0625 3.59375 C 6.582031 3.132812 7.441406 2.3125 8.640625 1.125 C 9.835938 -0.0507812 11.160156 -1.359375 12.609375 -2.796875 C 11.671875 -2.828125 10.722656 -2.851562 9.765625 -2.875 C 8.429688 -1.539062 7.207031 -0.28125 6.09375 0.90625 C 4.976562 2.09375 4.082031 3.066406 3.40625 3.828125 C 3.28125 4.003906 3.101562 4.09375 2.875 4.09375 C 2.695312 4.09375 2.535156 4.023438 2.390625 3.890625 C 2.234375 3.765625 2.148438 3.601562 2.140625 3.40625 C 2.128906 3.207031 2.1875 3.03125 2.3125 2.875 C 2.84375 2.289062 3.578125 1.488281 4.515625 0.46875 C 5.460938 -0.550781 6.546875 -1.675781 7.765625 -2.90625 C 6.953125 -2.90625 6.144531 -2.90625 5.34375 -2.90625 C 4.550781 -2.90625 3.78125 -2.90625 3.03125 -2.90625 L 2.609375 -2.90625 C 2.410156 -2.90625 2.238281 -2.972656 2.09375 -3.109375 C 1.957031 -3.253906 1.890625 -3.429688 1.890625 -3.640625 C 1.890625 -3.835938 1.957031 -4.003906 2.09375 -4.140625 C 2.238281 -4.285156 2.410156 -4.359375 2.609375 -4.359375 L 3.03125 -4.359375 C 4.007812 -4.359375 5.007812 -4.359375 6.03125 -4.359375 C 7.050781 -4.359375 8.09375 -4.359375 9.15625 -4.359375 C 10.039062 -5.234375 10.910156 -6.101562 11.765625 -6.96875 C 10.753906 -6.96875 9.75 -6.972656 8.75 -6.984375 C 7.757812 -6.992188 6.773438 -7.007812 5.796875 -7.03125 C 5.585938 -7.0625 5.414062 -7.144531 5.28125 -7.28125 C 5.144531 -7.425781 5.078125 -7.597656 5.078125 -7.796875 C 5.097656 -7.992188 5.179688 -8.160156 5.328125 -8.296875 C 5.484375 -8.441406 5.648438 -8.515625 5.828125 -8.515625 C 7.035156 -8.460938 8.265625 -8.429688 9.515625 -8.421875 C 10.765625 -8.410156 12.019531 -8.40625 13.28125 -8.40625 C 14.945312 -9.96875 16.53125 -11.394531 18.03125 -12.6875 C 19.53125 -13.988281 20.773438 -14.90625 21.765625 -15.4375 C 21.941406 -15.539062 22.125 -15.566406 22.3125 -15.515625 C 22.5 -15.460938 22.644531 -15.347656 22.75 -15.171875 C 22.84375 -14.992188 22.859375 -14.804688 22.796875 -14.609375 C 22.734375 -14.410156 22.613281 -14.269531 22.4375 -14.1875 C 21.65625 -13.738281 20.644531 -12.992188 19.40625 -11.953125 C 18.175781 -10.921875 16.851562 -9.738281 15.4375 -8.40625 C 15.863281 -8.40625 16.296875 -8.410156 16.734375 -8.421875 C 17.179688 -8.429688 17.617188 -8.4375 18.046875 -8.4375 C 19.128906 -9.570312 20.050781 -10.554688 20.8125 -11.390625 C 21.570312 -12.222656 22.023438 -12.765625 22.171875 -13.015625 C 22.273438 -13.191406 22.425781 -13.296875 22.625 -13.328125 C 22.832031 -13.367188 23.023438 -13.34375 23.203125 -13.25 C 23.347656 -13.144531 23.445312 -12.988281 23.5 -12.78125 C 23.550781 -12.582031 23.523438 -12.394531 23.421875 -12.21875 C 23.273438 -12 22.894531 -11.546875 22.28125 -10.859375 C 21.675781 -10.179688 20.945312 -9.390625 20.09375 -8.484375 C 21.101562 -8.484375 22.128906 -8.488281 23.171875 -8.5 C 24.222656 -8.507812 25.265625 -8.515625 26.296875 -8.515625 Z M 13.96875 -4.203125 C 14.894531 -5.160156 15.789062 -6.082031 16.65625 -6.96875 C 16.195312 -6.96875 15.734375 -6.96875 15.265625 -6.96875 C 14.796875 -6.96875 14.335938 -6.96875 13.890625 -6.96875 C 13.003906 -6.101562 12.09375 -5.21875 11.15625 -4.3125 C 12.144531 -4.289062 13.082031 -4.253906 13.96875 -4.203125 Z M 13.96875 -4.203125"></path></g></g></g><g fill-opacity="1" fill="#0167b9"><g transform="translate(621.355431, 317.025989)"><g><path d="M 44.546875 -26.828125 C 44.691406 -25.898438 44.675781 -24.675781 44.5 -23.15625 C 44.320312 -21.644531 44.003906 -19.9375 43.546875 -18.03125 C 43.097656 -16.125 42.515625 -14.117188 41.796875 -12.015625 C 41.078125 -9.910156 40.25 -7.796875 39.3125 -5.671875 C 38.382812 -3.554688 37.363281 -1.515625 36.25 0.453125 C 35.144531 2.421875 33.96875 4.210938 32.71875 5.828125 C 31.46875 7.441406 30.160156 8.789062 28.796875 9.875 C 27.035156 11.289062 25.546875 11.695312 24.328125 11.09375 C 23.398438 10.632812 22.726562 9.679688 22.3125 8.234375 C 21.894531 6.785156 21.640625 4.96875 21.546875 2.78125 C 21.460938 0.601562 21.445312 -1.820312 21.5 -4.5 C 21.5 -5.4375 21.5 -6.421875 21.5 -7.453125 C 21.5 -8.484375 21.476562 -9.414062 21.4375 -10.25 C 21.394531 -11.082031 21.300781 -11.664062 21.15625 -12 C 21.050781 -11.894531 20.878906 -11.6875 20.640625 -11.375 C 20.398438 -11.0625 20.066406 -10.535156 19.640625 -9.796875 C 14.160156 -0.0546875 9.894531 7.03125 6.84375 11.46875 C 5.789062 12.957031 4.910156 14.125 4.203125 14.96875 C 3.492188 15.8125 2.898438 16.398438 2.421875 16.734375 C 1.941406 17.078125 1.539062 17.25 1.21875 17.25 C 1.039062 17.25 0.863281 17.210938 0.6875 17.140625 C 0.457031 17.035156 0.265625 16.859375 0.109375 16.609375 C -0.0351562 16.359375 -0.117188 15.945312 -0.140625 15.375 C -0.171875 14.8125 -0.109375 14.003906 0.046875 12.953125 C 0.210938 11.910156 0.523438 10.550781 0.984375 8.875 C 1.441406 7.195312 2.0625 5.109375 2.84375 2.609375 C 3.5 0.585938 4.207031 -1.53125 4.96875 -3.75 C 5.738281 -5.96875 6.535156 -8.195312 7.359375 -10.4375 C 8.179688 -12.6875 8.984375 -14.859375 9.765625 -16.953125 C 10.546875 -19.046875 11.273438 -20.988281 11.953125 -22.78125 C 12.992188 -25.457031 13.882812 -27.632812 14.625 -29.3125 C 15.375 -30.988281 16.007812 -32.28125 16.53125 -33.1875 C 17.0625 -34.09375 17.5 -34.726562 17.84375 -35.09375 C 18.1875 -35.46875 18.460938 -35.671875 18.671875 -35.703125 C 18.890625 -35.742188 19.070312 -35.75 19.21875 -35.71875 C 19.726562 -35.59375 20.039062 -35.1875 20.15625 -34.5 C 20.269531 -33.820312 20.285156 -32.941406 20.203125 -31.859375 C 20.203125 -31.660156 20.125 -31.5 19.96875 -31.375 C 19.820312 -31.25 19.648438 -31.1875 19.453125 -31.1875 C 19.253906 -31.207031 19.085938 -31.289062 18.953125 -31.4375 C 18.828125 -31.59375 18.765625 -31.773438 18.765625 -31.984375 C 18.796875 -32.503906 18.8125 -32.921875 18.8125 -33.234375 C 18.8125 -33.554688 18.796875 -33.804688 18.765625 -33.984375 C 18.515625 -33.679688 18.148438 -33.085938 17.671875 -32.203125 C 17.191406 -31.316406 16.59375 -30.066406 15.875 -28.453125 C 15.15625 -26.835938 14.304688 -24.769531 13.328125 -22.25 C 11.304688 -17 9.597656 -12.429688 8.203125 -8.546875 C 6.816406 -4.660156 5.675781 -1.351562 4.78125 1.375 C 3.882812 4.113281 3.191406 6.378906 2.703125 8.171875 C 2.210938 9.960938 1.859375 11.378906 1.640625 12.421875 C 1.429688 13.472656 1.3125 14.242188 1.28125 14.734375 C 1.257812 15.234375 1.273438 15.570312 1.328125 15.75 C 1.472656 15.664062 1.722656 15.457031 2.078125 15.125 C 2.429688 14.800781 2.9375 14.226562 3.59375 13.40625 C 4.25 12.59375 5.109375 11.40625 6.171875 9.84375 C 9.171875 5.394531 13.242188 -1.390625 18.390625 -10.515625 C 19.066406 -11.734375 19.644531 -12.566406 20.125 -13.015625 C 20.613281 -13.472656 21.097656 -13.640625 21.578125 -13.515625 C 22.273438 -13.304688 22.6875 -12.492188 22.8125 -11.078125 C 22.945312 -9.671875 22.988281 -7.46875 22.9375 -4.46875 C 22.9375 -3.15625 22.9375 -1.734375 22.9375 -0.203125 C 22.9375 1.316406 22.992188 2.789062 23.109375 4.21875 C 23.222656 5.644531 23.421875 6.863281 23.703125 7.875 C 23.992188 8.882812 24.421875 9.515625 24.984375 9.765625 C 25.378906 9.960938 25.851562 9.925781 26.40625 9.65625 C 26.96875 9.394531 27.460938 9.085938 27.890625 8.734375 C 29.378906 7.554688 30.8125 6.015625 32.1875 4.109375 C 33.5625 2.203125 34.84375 0.0976562 36.03125 -2.203125 C 37.21875 -4.515625 38.28125 -6.878906 39.21875 -9.296875 C 40.164062 -11.722656 40.960938 -14.066406 41.609375 -16.328125 C 42.253906 -18.585938 42.707031 -20.613281 42.96875 -22.40625 C 43.238281 -24.195312 43.285156 -25.597656 43.109375 -26.609375 C 43.003906 -27.265625 42.828125 -27.628906 42.578125 -27.703125 C 42.523438 -27.722656 42.359375 -27.703125 42.078125 -27.640625 C 41.804688 -27.578125 41.363281 -27.269531 40.75 -26.71875 C 40.601562 -26.59375 40.425781 -26.535156 40.21875 -26.546875 C 40.019531 -26.554688 39.859375 -26.640625 39.734375 -26.796875 C 39.585938 -26.941406 39.519531 -27.113281 39.53125 -27.3125 C 39.539062 -27.519531 39.625 -27.6875 39.78125 -27.8125 C 41.082031 -28.976562 42.175781 -29.410156 43.0625 -29.109375 C 43.84375 -28.828125 44.335938 -28.066406 44.546875 -26.828125 Z M 44.546875 -26.828125"></path></g></g></g><g fill-opacity="1" fill="#0167b9"><g transform="translate(665.214172, 317.025989)"><g><path d="M 17.9375 -8.671875 C 18.09375 -8.566406 18.191406 -8.410156 18.234375 -8.203125 C 18.285156 -8.003906 18.265625 -7.816406 18.171875 -7.640625 C 16.953125 -5.703125 15.875 -4.125 14.9375 -2.90625 C 14.007812 -1.695312 13.210938 -0.773438 12.546875 -0.140625 C 11.878906 0.484375 11.316406 0.90625 10.859375 1.125 C 10.410156 1.351562 10.046875 1.46875 9.765625 1.46875 C 9.484375 1.46875 9.269531 1.457031 9.125 1.4375 C 8.539062 1.289062 8.109375 0.941406 7.828125 0.390625 C 7.554688 -0.148438 7.375 -0.707031 7.28125 -1.28125 C 7.195312 -1.863281 7.140625 -2.304688 7.109375 -2.609375 C 7.054688 -3.492188 6.953125 -4.085938 6.796875 -4.390625 C 6.648438 -4.691406 6.539062 -4.84375 6.46875 -4.84375 C 6.445312 -4.84375 6.4375 -4.84375 6.4375 -4.84375 C 6.101562 -4.84375 5.554688 -4.378906 4.796875 -3.453125 C 4.046875 -2.535156 3.160156 -1.09375 2.140625 0.875 C 1.117188 2.84375 0.0507812 5.398438 -1.0625 8.546875 C -1.164062 8.878906 -1.390625 9.046875 -1.734375 9.046875 C -1.785156 9.046875 -1.835938 9.046875 -1.890625 9.046875 C -2.296875 8.941406 -2.484375 8.6875 -2.453125 8.28125 C -2.429688 7.851562 -2.316406 7.082031 -2.109375 5.96875 C -1.910156 4.863281 -1.640625 3.535156 -1.296875 1.984375 C -0.960938 0.429688 -0.585938 -1.25 -0.171875 -3.0625 C 0.242188 -4.882812 0.671875 -6.726562 1.109375 -8.59375 C 1.554688 -10.457031 1.976562 -12.238281 2.375 -13.9375 C 2.78125 -15.644531 3.144531 -17.179688 3.46875 -18.546875 C 3.800781 -19.910156 4.066406 -21 4.265625 -21.8125 C 4.472656 -22.632812 4.578125 -23.054688 4.578125 -23.078125 C 5.160156 -25.398438 5.800781 -27.515625 6.5 -29.421875 C 7.207031 -31.328125 7.910156 -32.859375 8.609375 -34.015625 C 9.304688 -35.179688 9.914062 -35.8125 10.4375 -35.90625 C 10.875 -35.988281 11.203125 -35.863281 11.421875 -35.53125 C 11.773438 -35.03125 11.742188 -33.976562 11.328125 -32.375 C 10.910156 -30.769531 10.15625 -28.742188 9.0625 -26.296875 C 7.96875 -23.847656 6.570312 -21.113281 4.875 -18.09375 C 4.425781 -16.195312 3.929688 -14.125 3.390625 -11.875 C 2.847656 -9.632812 2.316406 -7.378906 1.796875 -5.109375 C 1.273438 -2.835938 0.800781 -0.742188 0.375 1.171875 C 1.0625 -0.265625 1.765625 -1.5625 2.484375 -2.71875 C 3.203125 -3.882812 3.921875 -4.785156 4.640625 -5.421875 C 5.359375 -6.066406 6.03125 -6.351562 6.65625 -6.28125 C 7.21875 -6.207031 7.628906 -5.929688 7.890625 -5.453125 C 8.148438 -4.972656 8.320312 -4.460938 8.40625 -3.921875 C 8.5 -3.378906 8.546875 -2.976562 8.546875 -2.71875 C 8.628906 -1.789062 8.757812 -1.109375 8.9375 -0.671875 C 9.113281 -0.242188 9.285156 -0.0195312 9.453125 0 C 9.503906 0.0195312 9.675781 -0.0078125 9.96875 -0.09375 C 10.257812 -0.1875 10.6875 -0.472656 11.25 -0.953125 C 11.820312 -1.429688 12.570312 -2.253906 13.5 -3.421875 C 14.4375 -4.597656 15.578125 -6.269531 16.921875 -8.4375 C 17.015625 -8.59375 17.160156 -8.691406 17.359375 -8.734375 C 17.566406 -8.785156 17.757812 -8.765625 17.9375 -8.671875 Z M 10.1875 -33.796875 C 9.75 -33.160156 9.171875 -32.039062 8.453125 -30.4375 C 7.734375 -28.84375 7.007812 -26.671875 6.28125 -23.921875 C 7.570312 -26.460938 8.507812 -28.550781 9.09375 -30.1875 C 9.6875 -31.832031 10.050781 -33.035156 10.1875 -33.796875 Z M 10.1875 -33.796875"></path></g></g></g><g fill-opacity="1" fill="#0167b9"><g transform="translate(681.524019, 317.025989)"><g><path d="M 12.796875 -8.4375 C 12.972656 -8.332031 13.070312 -8.179688 13.09375 -7.984375 C 13.113281 -7.785156 13.078125 -7.609375 12.984375 -7.453125 C 11.492188 -5.390625 10.128906 -3.679688 8.890625 -2.328125 C 7.648438 -0.972656 6.414062 0.140625 5.1875 1.015625 C 4.25 1.671875 3.328125 2 2.421875 2 C 1.710938 2 1.09375 1.8125 0.5625 1.4375 C 0.207031 1.1875 -0.132812 0.738281 -0.46875 0.09375 C -0.8125 -0.550781 -0.992188 -1.484375 -1.015625 -2.703125 C -1.046875 -3.929688 -0.742188 -5.539062 -0.109375 -7.53125 C -0.109375 -7.53125 -0.109375 -7.539062 -0.109375 -7.5625 C 0.640625 -9.988281 1.523438 -11.835938 2.546875 -13.109375 C 3.578125 -14.390625 4.457031 -15.039062 5.1875 -15.0625 C 5.769531 -15.082031 6.144531 -14.832031 6.3125 -14.3125 C 6.59375 -13.570312 6.265625 -12.523438 5.328125 -11.171875 C 4.398438 -9.828125 3.03125 -8.398438 1.21875 -6.890625 C 0.65625 -5.117188 0.382812 -3.734375 0.40625 -2.734375 C 0.4375 -1.742188 0.578125 -1.023438 0.828125 -0.578125 C 1.085938 -0.140625 1.289062 0.140625 1.4375 0.265625 C 2.195312 0.816406 3.171875 0.664062 4.359375 -0.1875 C 5.515625 -1 6.6875 -2.050781 7.875 -3.34375 C 9.0625 -4.644531 10.359375 -6.289062 11.765625 -8.28125 C 11.890625 -8.4375 12.050781 -8.53125 12.25 -8.5625 C 12.457031 -8.601562 12.640625 -8.5625 12.796875 -8.4375 Z M 4.921875 -13.46875 C 4.640625 -13.289062 4.257812 -12.914062 3.78125 -12.34375 C 3.300781 -11.78125 2.8125 -10.957031 2.3125 -9.875 C 3.21875 -10.757812 3.859375 -11.507812 4.234375 -12.125 C 4.617188 -12.75 4.847656 -13.195312 4.921875 -13.46875 Z M 4.921875 -13.46875"></path></g></g></g><g fill-opacity="1" fill="#0167b9"><g transform="translate(692.536009, 317.025989)"><g><path d="M 16.609375 -8.59375 C 16.785156 -8.488281 16.910156 -8.34375 16.984375 -8.15625 C 17.066406 -7.96875 17.054688 -7.785156 16.953125 -7.609375 C 16.472656 -6.578125 15.882812 -5.414062 15.1875 -4.125 C 14.5 -2.832031 13.765625 -1.535156 12.984375 -0.234375 C 12.203125 1.054688 11.40625 2.238281 10.59375 3.3125 C 9.789062 4.382812 9.007812 5.253906 8.25 5.921875 C 7.488281 6.585938 6.804688 6.921875 6.203125 6.921875 C 6.023438 6.921875 5.863281 6.882812 5.71875 6.8125 C 5.1875 6.613281 4.835938 6.132812 4.671875 5.375 C 4.503906 4.613281 4.523438 3.53125 4.734375 2.125 C 5.085938 -0.425781 6.019531 -4.035156 7.53125 -8.703125 C 7.507812 -8.703125 7.488281 -8.695312 7.46875 -8.6875 C 7.457031 -8.675781 7.441406 -8.671875 7.421875 -8.671875 C 6.910156 -8.316406 6.300781 -7.945312 5.59375 -7.5625 C 4.894531 -7.1875 4.164062 -6.9375 3.40625 -6.8125 C 2.644531 -6.6875 1.925781 -6.847656 1.25 -7.296875 C 0.289062 -7.984375 -0.195312 -8.929688 -0.21875 -10.140625 C -0.25 -11.347656 0.203125 -12.671875 1.140625 -14.109375 C 1.441406 -14.566406 1.835938 -15.070312 2.328125 -15.625 C 2.816406 -16.1875 3.332031 -16.617188 3.875 -16.921875 C 4.414062 -17.222656 4.90625 -17.234375 5.34375 -16.953125 C 5.5625 -16.828125 5.726562 -16.613281 5.84375 -16.3125 C 5.957031 -16.007812 5.953125 -15.539062 5.828125 -14.90625 C 5.703125 -14.28125 5.398438 -13.4375 4.921875 -12.375 C 4.441406 -11.3125 3.722656 -9.9375 2.765625 -8.25 C 3.347656 -8.175781 4 -8.335938 4.71875 -8.734375 C 5.4375 -9.140625 6.070312 -9.519531 6.625 -9.875 C 7.15625 -10.226562 7.597656 -10.488281 7.953125 -10.65625 C 8.304688 -10.820312 8.632812 -10.789062 8.9375 -10.5625 C 9.207031 -10.332031 9.316406 -10.050781 9.265625 -9.71875 C 9.222656 -9.394531 9.175781 -9.144531 9.125 -8.96875 C 8.289062 -6.34375 7.644531 -4.160156 7.1875 -2.421875 C 6.738281 -0.679688 6.429688 0.71875 6.265625 1.78125 C 6.097656 2.84375 6.015625 3.632812 6.015625 4.15625 C 6.015625 4.6875 6.050781 5.035156 6.125 5.203125 C 6.207031 5.367188 6.25 5.460938 6.25 5.484375 C 6.550781 5.535156 7.171875 5.050781 8.109375 4.03125 C 9.054688 3.007812 10.1875 1.472656 11.5 -0.578125 C 12.8125 -2.640625 14.1875 -5.1875 15.625 -8.21875 C 15.726562 -8.414062 15.875 -8.546875 16.0625 -8.609375 C 16.25 -8.671875 16.429688 -8.664062 16.609375 -8.59375 Z M 1.359375 -11.15625 C 1.210938 -10.632812 1.171875 -10.203125 1.234375 -9.859375 C 1.296875 -9.515625 1.390625 -9.242188 1.515625 -9.046875 C 2.316406 -10.453125 2.925781 -11.597656 3.34375 -12.484375 C 3.757812 -13.367188 4.039062 -14.050781 4.1875 -14.53125 C 4.34375 -15.007812 4.4375 -15.347656 4.46875 -15.546875 C 4.1875 -15.398438 3.835938 -15.113281 3.421875 -14.6875 C 3.003906 -14.257812 2.597656 -13.738281 2.203125 -13.125 C 1.816406 -12.519531 1.535156 -11.863281 1.359375 -11.15625 Z M 1.359375 -11.15625"></path></g></g></g><g fill-opacity="1" fill="#0167b9"><g transform="translate(707.63492, 317.025989)"><g><path d="M 12.796875 -8.4375 C 12.972656 -8.332031 13.070312 -8.179688 13.09375 -7.984375 C 13.113281 -7.785156 13.078125 -7.609375 12.984375 -7.453125 C 11.492188 -5.390625 10.128906 -3.679688 8.890625 -2.328125 C 7.648438 -0.972656 6.414062 0.140625 5.1875 1.015625 C 4.25 1.671875 3.328125 2 2.421875 2 C 1.710938 2 1.09375 1.8125 0.5625 1.4375 C 0.207031 1.1875 -0.132812 0.738281 -0.46875 0.09375 C -0.8125 -0.550781 -0.992188 -1.484375 -1.015625 -2.703125 C -1.046875 -3.929688 -0.742188 -5.539062 -0.109375 -7.53125 C -0.109375 -7.53125 -0.109375 -7.539062 -0.109375 -7.5625 C 0.640625 -9.988281 1.523438 -11.835938 2.546875 -13.109375 C 3.578125 -14.390625 4.457031 -15.039062 5.1875 -15.0625 C 5.769531 -15.082031 6.144531 -14.832031 6.3125 -14.3125 C 6.59375 -13.570312 6.265625 -12.523438 5.328125 -11.171875 C 4.398438 -9.828125 3.03125 -8.398438 1.21875 -6.890625 C 0.65625 -5.117188 0.382812 -3.734375 0.40625 -2.734375 C 0.4375 -1.742188 0.578125 -1.023438 0.828125 -0.578125 C 1.085938 -0.140625 1.289062 0.140625 1.4375 0.265625 C 2.195312 0.816406 3.171875 0.664062 4.359375 -0.1875 C 5.515625 -1 6.6875 -2.050781 7.875 -3.34375 C 9.0625 -4.644531 10.359375 -6.289062 11.765625 -8.28125 C 11.890625 -8.4375 12.050781 -8.53125 12.25 -8.5625 C 12.457031 -8.601562 12.640625 -8.5625 12.796875 -8.4375 Z M 4.921875 -13.46875 C 4.640625 -13.289062 4.257812 -12.914062 3.78125 -12.34375 C 3.300781 -11.78125 2.8125 -10.957031 2.3125 -9.875 C 3.21875 -10.757812 3.859375 -11.507812 4.234375 -12.125 C 4.617188 -12.75 4.847656 -13.195312 4.921875 -13.46875 Z M 4.921875 -13.46875"></path></g></g></g><g fill-opacity="1" fill="#0167b9"><g transform="translate(718.64691, 317.025989)"><g><path d="M 44.546875 -26.828125 C 44.691406 -25.898438 44.675781 -24.675781 44.5 -23.15625 C 44.320312 -21.644531 44.003906 -19.9375 43.546875 -18.03125 C 43.097656 -16.125 42.515625 -14.117188 41.796875 -12.015625 C 41.078125 -9.910156 40.25 -7.796875 39.3125 -5.671875 C 38.382812 -3.554688 37.363281 -1.515625 36.25 0.453125 C 35.144531 2.421875 33.96875 4.210938 32.71875 5.828125 C 31.46875 7.441406 30.160156 8.789062 28.796875 9.875 C 27.035156 11.289062 25.546875 11.695312 24.328125 11.09375 C 23.398438 10.632812 22.726562 9.679688 22.3125 8.234375 C 21.894531 6.785156 21.640625 4.96875 21.546875 2.78125 C 21.460938 0.601562 21.445312 -1.820312 21.5 -4.5 C 21.5 -5.4375 21.5 -6.421875 21.5 -7.453125 C 21.5 -8.484375 21.476562 -9.414062 21.4375 -10.25 C 21.394531 -11.082031 21.300781 -11.664062 21.15625 -12 C 21.050781 -11.894531 20.878906 -11.6875 20.640625 -11.375 C 20.398438 -11.0625 20.066406 -10.535156 19.640625 -9.796875 C 14.160156 -0.0546875 9.894531 7.03125 6.84375 11.46875 C 5.789062 12.957031 4.910156 14.125 4.203125 14.96875 C 3.492188 15.8125 2.898438 16.398438 2.421875 16.734375 C 1.941406 17.078125 1.539062 17.25 1.21875 17.25 C 1.039062 17.25 0.863281 17.210938 0.6875 17.140625 C 0.457031 17.035156 0.265625 16.859375 0.109375 16.609375 C -0.0351562 16.359375 -0.117188 15.945312 -0.140625 15.375 C -0.171875 14.8125 -0.109375 14.003906 0.046875 12.953125 C 0.210938 11.910156 0.523438 10.550781 0.984375 8.875 C 1.441406 7.195312 2.0625 5.109375 2.84375 2.609375 C 3.5 0.585938 4.207031 -1.53125 4.96875 -3.75 C 5.738281 -5.96875 6.535156 -8.195312 7.359375 -10.4375 C 8.179688 -12.6875 8.984375 -14.859375 9.765625 -16.953125 C 10.546875 -19.046875 11.273438 -20.988281 11.953125 -22.78125 C 12.992188 -25.457031 13.882812 -27.632812 14.625 -29.3125 C 15.375 -30.988281 16.007812 -32.28125 16.53125 -33.1875 C 17.0625 -34.09375 17.5 -34.726562 17.84375 -35.09375 C 18.1875 -35.46875 18.460938 -35.671875 18.671875 -35.703125 C 18.890625 -35.742188 19.070312 -35.75 19.21875 -35.71875 C 19.726562 -35.59375 20.039062 -35.1875 20.15625 -34.5 C 20.269531 -33.820312 20.285156 -32.941406 20.203125 -31.859375 C 20.203125 -31.660156 20.125 -31.5 19.96875 -31.375 C 19.820312 -31.25 19.648438 -31.1875 19.453125 -31.1875 C 19.253906 -31.207031 19.085938 -31.289062 18.953125 -31.4375 C 18.828125 -31.59375 18.765625 -31.773438 18.765625 -31.984375 C 18.796875 -32.503906 18.8125 -32.921875 18.8125 -33.234375 C 18.8125 -33.554688 18.796875 -33.804688 18.765625 -33.984375 C 18.515625 -33.679688 18.148438 -33.085938 17.671875 -32.203125 C 17.191406 -31.316406 16.59375 -30.066406 15.875 -28.453125 C 15.15625 -26.835938 14.304688 -24.769531 13.328125 -22.25 C 11.304688 -17 9.597656 -12.429688 8.203125 -8.546875 C 6.816406 -4.660156 5.675781 -1.351562 4.78125 1.375 C 3.882812 4.113281 3.191406 6.378906 2.703125 8.171875 C 2.210938 9.960938 1.859375 11.378906 1.640625 12.421875 C 1.429688 13.472656 1.3125 14.242188 1.28125 14.734375 C 1.257812 15.234375 1.273438 15.570312 1.328125 15.75 C 1.472656 15.664062 1.722656 15.457031 2.078125 15.125 C 2.429688 14.800781 2.9375 14.226562 3.59375 13.40625 C 4.25 12.59375 5.109375 11.40625 6.171875 9.84375 C 9.171875 5.394531 13.242188 -1.390625 18.390625 -10.515625 C 19.066406 -11.734375 19.644531 -12.566406 20.125 -13.015625 C 20.613281 -13.472656 21.097656 -13.640625 21.578125 -13.515625 C 22.273438 -13.304688 22.6875 -12.492188 22.8125 -11.078125 C 22.945312 -9.671875 22.988281 -7.46875 22.9375 -4.46875 C 22.9375 -3.15625 22.9375 -1.734375 22.9375 -0.203125 C 22.9375 1.316406 22.992188 2.789062 23.109375 4.21875 C 23.222656 5.644531 23.421875 6.863281 23.703125 7.875 C 23.992188 8.882812 24.421875 9.515625 24.984375 9.765625 C 25.378906 9.960938 25.851562 9.925781 26.40625 9.65625 C 26.96875 9.394531 27.460938 9.085938 27.890625 8.734375 C 29.378906 7.554688 30.8125 6.015625 32.1875 4.109375 C 33.5625 2.203125 34.84375 0.0976562 36.03125 -2.203125 C 37.21875 -4.515625 38.28125 -6.878906 39.21875 -9.296875 C 40.164062 -11.722656 40.960938 -14.066406 41.609375 -16.328125 C 42.253906 -18.585938 42.707031 -20.613281 42.96875 -22.40625 C 43.238281 -24.195312 43.285156 -25.597656 43.109375 -26.609375 C 43.003906 -27.265625 42.828125 -27.628906 42.578125 -27.703125 C 42.523438 -27.722656 42.359375 -27.703125 42.078125 -27.640625 C 41.804688 -27.578125 41.363281 -27.269531 40.75 -26.71875 C 40.601562 -26.59375 40.425781 -26.535156 40.21875 -26.546875 C 40.019531 -26.554688 39.859375 -26.640625 39.734375 -26.796875 C 39.585938 -26.941406 39.519531 -27.113281 39.53125 -27.3125 C 39.539062 -27.519531 39.625 -27.6875 39.78125 -27.8125 C 41.082031 -28.976562 42.175781 -29.410156 43.0625 -29.109375 C 43.84375 -28.828125 44.335938 -28.066406 44.546875 -26.828125 Z M 44.546875 -26.828125"></path></g></g></g><g fill-opacity="1" fill="#0167b9"><g transform="translate(762.505651, 317.025989)"><g><path d="M 12.796875 -8.4375 C 12.972656 -8.332031 13.070312 -8.179688 13.09375 -7.984375 C 13.113281 -7.785156 13.078125 -7.609375 12.984375 -7.453125 C 11.492188 -5.390625 10.128906 -3.679688 8.890625 -2.328125 C 7.648438 -0.972656 6.414062 0.140625 5.1875 1.015625 C 4.25 1.671875 3.328125 2 2.421875 2 C 1.710938 2 1.09375 1.8125 0.5625 1.4375 C 0.207031 1.1875 -0.132812 0.738281 -0.46875 0.09375 C -0.8125 -0.550781 -0.992188 -1.484375 -1.015625 -2.703125 C -1.046875 -3.929688 -0.742188 -5.539062 -0.109375 -7.53125 C -0.109375 -7.53125 -0.109375 -7.539062 -0.109375 -7.5625 C 0.640625 -9.988281 1.523438 -11.835938 2.546875 -13.109375 C 3.578125 -14.390625 4.457031 -15.039062 5.1875 -15.0625 C 5.769531 -15.082031 6.144531 -14.832031 6.3125 -14.3125 C 6.59375 -13.570312 6.265625 -12.523438 5.328125 -11.171875 C 4.398438 -9.828125 3.03125 -8.398438 1.21875 -6.890625 C 0.65625 -5.117188 0.382812 -3.734375 0.40625 -2.734375 C 0.4375 -1.742188 0.578125 -1.023438 0.828125 -0.578125 C 1.085938 -0.140625 1.289062 0.140625 1.4375 0.265625 C 2.195312 0.816406 3.171875 0.664062 4.359375 -0.1875 C 5.515625 -1 6.6875 -2.050781 7.875 -3.34375 C 9.0625 -4.644531 10.359375 -6.289062 11.765625 -8.28125 C 11.890625 -8.4375 12.050781 -8.53125 12.25 -8.5625 C 12.457031 -8.601562 12.640625 -8.5625 12.796875 -8.4375 Z M 4.921875 -13.46875 C 4.640625 -13.289062 4.257812 -12.914062 3.78125 -12.34375 C 3.300781 -11.78125 2.8125 -10.957031 2.3125 -9.875 C 3.21875 -10.757812 3.859375 -11.507812 4.234375 -12.125 C 4.617188 -12.75 4.847656 -13.195312 4.921875 -13.46875 Z M 4.921875 -13.46875"></path></g></g></g><g fill-opacity="1" fill="#0167b9"><g transform="translate(773.517641, 317.025989)"><g><path d="M 31.265625 -15.484375 C 32.242188 -14.265625 32.925781 -12.832031 33.3125 -11.1875 C 33.707031 -9.550781 33.796875 -7.804688 33.578125 -5.953125 C 33.367188 -4.097656 32.847656 -2.226562 32.015625 -0.34375 C 30.773438 2.507812 29.050781 4.992188 26.84375 7.109375 C 24.632812 9.234375 22.054688 10.925781 19.109375 12.1875 C 16.160156 13.445312 12.941406 14.203125 9.453125 14.453125 C 9.453125 14.453125 9.441406 14.453125 9.421875 14.453125 C 8.960938 14.453125 8.722656 14.226562 8.703125 13.78125 C 8.679688 13.570312 8.738281 13.390625 8.875 13.234375 C 9.007812 13.085938 9.164062 13.015625 9.34375 13.015625 C 12.65625 12.765625 15.703125 12.046875 18.484375 10.859375 C 21.273438 9.671875 23.71875 8.082031 25.8125 6.09375 C 27.90625 4.101562 29.53125 1.769531 30.6875 -0.90625 C 31.445312 -2.625 31.925781 -4.328125 32.125 -6.015625 C 32.332031 -7.703125 32.265625 -9.273438 31.921875 -10.734375 C 31.578125 -12.203125 30.976562 -13.476562 30.125 -14.5625 C 28.707031 -16.3125 26.765625 -17.347656 24.296875 -17.671875 C 23.234375 -16.566406 22.023438 -15.476562 20.671875 -14.40625 C 19.328125 -13.332031 17.96875 -12.351562 16.59375 -11.46875 C 15.21875 -10.582031 13.929688 -9.851562 12.734375 -9.28125 C 11.535156 -8.71875 10.53125 -8.382812 9.71875 -8.28125 C 9.164062 -5.5625 8.625 -2.835938 8.09375 -0.109375 C 7.5625 2.609375 7.078125 5.175781 6.640625 7.59375 C 6.203125 10.019531 5.832031 12.191406 5.53125 14.109375 C 5.226562 16.023438 5.007812 17.566406 4.875 18.734375 C 4.925781 18.609375 4.976562 18.484375 5.03125 18.359375 C 5.101562 18.148438 5.234375 18.007812 5.421875 17.9375 C 5.617188 17.863281 5.816406 17.863281 6.015625 17.9375 C 6.191406 18.007812 6.316406 18.140625 6.390625 18.328125 C 6.472656 18.523438 6.472656 18.710938 6.390625 18.890625 C 5.992188 19.867188 5.648438 20.597656 5.359375 21.078125 C 5.066406 21.554688 4.742188 21.796875 4.390625 21.796875 C 4.285156 21.796875 4.1875 21.769531 4.09375 21.71875 C 3.914062 21.664062 3.753906 21.53125 3.609375 21.3125 C 3.472656 21.101562 3.398438 20.675781 3.390625 20.03125 C 3.378906 19.394531 3.453125 18.425781 3.609375 17.125 C 3.773438 15.820312 4.046875 14.070312 4.421875 11.875 C 4.804688 9.6875 5.3125 6.914062 5.9375 3.5625 C 6.570312 0.207031 7.367188 -3.851562 8.328125 -8.625 C 8.203125 -8.726562 8.09375 -8.882812 8 -9.09375 C 7.914062 -9.3125 7.910156 -9.597656 7.984375 -9.953125 C 8.234375 -10.859375 8.613281 -11.726562 9.125 -12.5625 C 9.34375 -13.726562 9.578125 -14.921875 9.828125 -16.140625 C 10.085938 -17.359375 10.34375 -18.625 10.59375 -19.9375 C 11.226562 -23.019531 11.816406 -25.882812 12.359375 -28.53125 C 12.898438 -31.175781 13.347656 -33.472656 13.703125 -35.421875 C 12.515625 -35.117188 11.40625 -34.703125 10.375 -34.171875 C 7.59375 -32.835938 5.617188 -30.960938 4.453125 -28.546875 C 3.296875 -26.140625 3.046875 -23.421875 3.703125 -20.390625 C 3.753906 -20.191406 3.722656 -20.007812 3.609375 -19.84375 C 3.492188 -19.6875 3.347656 -19.582031 3.171875 -19.53125 C 2.972656 -19.476562 2.785156 -19.507812 2.609375 -19.625 C 2.429688 -19.738281 2.332031 -19.894531 2.3125 -20.09375 C 1.550781 -23.476562 1.820312 -26.515625 3.125 -29.203125 C 4.425781 -31.890625 6.625 -33.988281 9.71875 -35.5 C 11.0625 -36.15625 12.488281 -36.644531 14 -36.96875 C 14.03125 -37.09375 14.054688 -37.210938 14.078125 -37.328125 C 14.097656 -37.441406 14.125 -37.5625 14.15625 -37.6875 C 14.175781 -37.894531 14.269531 -38.050781 14.4375 -38.15625 C 14.601562 -38.269531 14.785156 -38.304688 14.984375 -38.265625 C 15.179688 -38.234375 15.335938 -38.132812 15.453125 -37.96875 C 15.566406 -37.8125 15.597656 -37.628906 15.546875 -37.421875 C 15.546875 -37.398438 15.546875 -37.375 15.546875 -37.34375 C 15.546875 -37.320312 15.546875 -37.300781 15.546875 -37.28125 C 17.242188 -37.5 18.910156 -37.515625 20.546875 -37.328125 C 22.191406 -37.140625 23.679688 -36.742188 25.015625 -36.140625 C 26.347656 -35.535156 27.429688 -34.726562 28.265625 -33.71875 C 29.222656 -32.582031 29.769531 -31.367188 29.90625 -30.078125 C 30.050781 -28.796875 29.929688 -27.523438 29.546875 -26.265625 C 29.171875 -25.003906 28.660156 -23.816406 28.015625 -22.703125 C 27.378906 -21.597656 26.757812 -20.640625 26.15625 -19.828125 C 25.945312 -19.523438 25.707031 -19.222656 25.4375 -18.921875 C 27.882812 -18.421875 29.828125 -17.273438 31.265625 -15.484375 Z M 10.03125 -9.796875 C 10.613281 -9.972656 11.367188 -10.285156 12.296875 -10.734375 C 13.234375 -11.191406 14.28125 -11.773438 15.4375 -12.484375 C 16.601562 -13.191406 17.785156 -13.988281 18.984375 -14.875 C 20.179688 -15.757812 21.304688 -16.71875 22.359375 -17.75 C 21.378906 -17.75 20.347656 -17.632812 19.265625 -17.40625 C 18.203125 -17.207031 17.113281 -16.875 16 -16.40625 C 14.894531 -15.9375 13.863281 -15.34375 12.90625 -14.625 C 11.945312 -13.90625 11.140625 -13.039062 10.484375 -12.03125 C 10.410156 -11.65625 10.332031 -11.285156 10.25 -10.921875 C 10.175781 -10.554688 10.101562 -10.179688 10.03125 -9.796875 Z M 23.734375 -19.1875 C 24.210938 -19.6875 24.640625 -20.191406 25.015625 -20.703125 C 26.859375 -23.203125 27.96875 -25.484375 28.34375 -27.546875 C 28.71875 -29.617188 28.328125 -31.359375 27.171875 -32.765625 C 26.410156 -33.679688 25.40625 -34.398438 24.15625 -34.921875 C 22.914062 -35.453125 21.519531 -35.785156 19.96875 -35.921875 C 18.414062 -36.066406 16.84375 -36 15.25 -35.71875 C 14.894531 -33.78125 14.429688 -31.425781 13.859375 -28.65625 C 13.296875 -25.894531 12.6875 -22.898438 12.03125 -19.671875 C 11.882812 -18.921875 11.726562 -18.15625 11.5625 -17.375 C 11.394531 -16.59375 11.238281 -15.796875 11.09375 -14.984375 C 12.070312 -15.921875 13.234375 -16.71875 14.578125 -17.375 C 15.929688 -18.03125 17.40625 -18.519531 19 -18.84375 C 20.664062 -19.175781 22.242188 -19.289062 23.734375 -19.1875 Z M 23.734375 -19.1875"></path></g></g></g><g fill-opacity="1" fill="#0167b9"><g transform="translate(810.564837, 317.025989)"><g><path d="M 12.796875 -8.4375 C 12.972656 -8.332031 13.070312 -8.179688 13.09375 -7.984375 C 13.113281 -7.785156 13.078125 -7.609375 12.984375 -7.453125 C 11.492188 -5.390625 10.128906 -3.679688 8.890625 -2.328125 C 7.648438 -0.972656 6.414062 0.140625 5.1875 1.015625 C 4.25 1.671875 3.328125 2 2.421875 2 C 1.710938 2 1.09375 1.8125 0.5625 1.4375 C 0.207031 1.1875 -0.132812 0.738281 -0.46875 0.09375 C -0.8125 -0.550781 -0.992188 -1.484375 -1.015625 -2.703125 C -1.046875 -3.929688 -0.742188 -5.539062 -0.109375 -7.53125 C -0.109375 -7.53125 -0.109375 -7.539062 -0.109375 -7.5625 C 0.640625 -9.988281 1.523438 -11.835938 2.546875 -13.109375 C 3.578125 -14.390625 4.457031 -15.039062 5.1875 -15.0625 C 5.769531 -15.082031 6.144531 -14.832031 6.3125 -14.3125 C 6.59375 -13.570312 6.265625 -12.523438 5.328125 -11.171875 C 4.398438 -9.828125 3.03125 -8.398438 1.21875 -6.890625 C 0.65625 -5.117188 0.382812 -3.734375 0.40625 -2.734375 C 0.4375 -1.742188 0.578125 -1.023438 0.828125 -0.578125 C 1.085938 -0.140625 1.289062 0.140625 1.4375 0.265625 C 2.195312 0.816406 3.171875 0.664062 4.359375 -0.1875 C 5.515625 -1 6.6875 -2.050781 7.875 -3.34375 C 9.0625 -4.644531 10.359375 -6.289062 11.765625 -8.28125 C 11.890625 -8.4375 12.050781 -8.53125 12.25 -8.5625 C 12.457031 -8.601562 12.640625 -8.5625 12.796875 -8.4375 Z M 4.921875 -13.46875 C 4.640625 -13.289062 4.257812 -12.914062 3.78125 -12.34375 C 3.300781 -11.78125 2.8125 -10.957031 2.3125 -9.875 C 3.21875 -10.757812 3.859375 -11.507812 4.234375 -12.125 C 4.617188 -12.75 4.847656 -13.195312 4.921875 -13.46875 Z M 4.921875 -13.46875"></path></g></g></g><g fill-opacity="1" fill="#0167b9"><g transform="translate(821.576827, 317.025989)"><g><path d="M 11.125 -35.453125 C 11.457031 -34.972656 11.460938 -34 11.140625 -32.53125 C 10.828125 -31.070312 10.175781 -29.265625 9.1875 -27.109375 C 8.207031 -24.953125 6.898438 -22.5625 5.265625 -19.9375 C 5.234375 -19.914062 5.207031 -19.894531 5.1875 -19.875 C 4.53125 -17.195312 3.878906 -14.46875 3.234375 -11.6875 C 2.585938 -8.914062 1.972656 -6.191406 1.390625 -3.515625 C 0.816406 -0.847656 0.289062 1.660156 -0.1875 4.015625 C -0.664062 6.378906 -1.078125 8.484375 -1.421875 10.328125 C -1.765625 12.171875 -2.007812 13.648438 -2.15625 14.765625 C -2.132812 14.765625 -2.109375 14.765625 -2.078125 14.765625 C -1.878906 14.835938 -1.734375 14.960938 -1.640625 15.140625 C -1.554688 15.316406 -1.550781 15.503906 -1.625 15.703125 C -1.800781 16.179688 -1.984375 16.613281 -2.171875 17 C -2.359375 17.394531 -2.617188 17.59375 -2.953125 17.59375 C -3.023438 17.59375 -3.113281 17.582031 -3.21875 17.5625 C -3.445312 17.488281 -3.609375 17.332031 -3.703125 17.09375 C -3.804688 16.851562 -3.820312 16.367188 -3.75 15.640625 C -3.675781 14.921875 -3.507812 13.820312 -3.25 12.34375 C -2.800781 9.613281 -2.125 6.054688 -1.21875 1.671875 C -0.5625 -1.410156 0.125 -4.546875 0.84375 -7.734375 C 1.570312 -10.929688 2.285156 -14.007812 2.984375 -16.96875 C 3.691406 -19.9375 4.375 -22.628906 5.03125 -25.046875 C 5.15625 -25.523438 5.34375 -26.191406 5.59375 -27.046875 C 5.851562 -27.910156 6.144531 -28.832031 6.46875 -29.8125 C 6.800781 -30.800781 7.164062 -31.75 7.5625 -32.65625 C 7.96875 -33.5625 8.382812 -34.3125 8.8125 -34.90625 C 9.238281 -35.5 9.671875 -35.832031 10.109375 -35.90625 C 10.535156 -35.988281 10.875 -35.835938 11.125 -35.453125 Z M 6.515625 -24.9375 C 7.722656 -27.207031 8.570312 -29.097656 9.0625 -30.609375 C 9.550781 -32.128906 9.835938 -33.226562 9.921875 -33.90625 C 9.566406 -33.40625 9.082031 -32.453125 8.46875 -31.046875 C 7.863281 -29.648438 7.210938 -27.613281 6.515625 -24.9375 Z M 6.515625 -24.9375"></path></g></g></g><g fill-opacity="1" fill="#0167b9"><g transform="translate(827.32878, 317.025989)"><g><path d="M 13.703125 -8.25 C 13.878906 -8.125 13.976562 -7.957031 14 -7.75 C 14.03125 -7.550781 13.976562 -7.378906 13.84375 -7.234375 C 13.1875 -6.398438 12.421875 -5.65625 11.546875 -5 C 10.679688 -4.34375 9.773438 -3.851562 8.828125 -3.53125 C 7.890625 -3.21875 6.976562 -3.164062 6.09375 -3.375 C 5.738281 -2.488281 5.238281 -1.804688 4.59375 -1.328125 C 3.957031 -0.847656 3.3125 -0.609375 2.65625 -0.609375 C 2.65625 -0.609375 2.644531 -0.609375 2.625 -0.609375 C 2.613281 -0.609375 2.609375 -0.609375 2.609375 -0.609375 C 1.929688 -0.628906 1.332031 -0.859375 0.8125 -1.296875 C 0.289062 -1.742188 -0.0664062 -2.359375 -0.265625 -3.140625 C -0.492188 -4.023438 -0.53125 -4.863281 -0.375 -5.65625 C -0.226562 -6.445312 0.046875 -7.144531 0.453125 -7.75 C 0.859375 -8.363281 1.3125 -8.832031 1.8125 -9.15625 C 1.988281 -9.28125 2.191406 -9.304688 2.421875 -9.234375 C 2.648438 -9.785156 2.972656 -10.210938 3.390625 -10.515625 C 3.804688 -10.816406 4.238281 -10.929688 4.6875 -10.859375 C 4.96875 -10.804688 5.269531 -10.632812 5.59375 -10.34375 C 5.925781 -10.0625 6.191406 -9.546875 6.390625 -8.796875 C 6.597656 -8.054688 6.660156 -6.96875 6.578125 -5.53125 C 6.554688 -5.269531 6.519531 -5.015625 6.46875 -4.765625 C 7.15625 -4.640625 7.875 -4.710938 8.625 -4.984375 C 9.382812 -5.265625 10.117188 -5.6875 10.828125 -6.25 C 11.535156 -6.820312 12.148438 -7.453125 12.671875 -8.140625 C 12.796875 -8.285156 12.957031 -8.367188 13.15625 -8.390625 C 13.363281 -8.421875 13.546875 -8.375 13.703125 -8.25 Z M 2.65625 -2.078125 C 2.976562 -2.078125 3.34375 -2.226562 3.75 -2.53125 C 4.15625 -2.832031 4.484375 -3.285156 4.734375 -3.890625 C 3.828125 -4.398438 3.175781 -4.984375 2.78125 -5.640625 C 2.382812 -6.296875 2.175781 -6.953125 2.15625 -7.609375 C 1.625 -7.097656 1.273438 -6.453125 1.109375 -5.671875 C 0.953125 -4.890625 0.960938 -4.1875 1.140625 -3.5625 C 1.210938 -3.28125 1.363281 -2.960938 1.59375 -2.609375 C 1.820312 -2.253906 2.175781 -2.078125 2.65625 -2.078125 Z M 5.109375 -5.59375 C 5.160156 -6.601562 5.140625 -7.382812 5.046875 -7.9375 C 4.960938 -8.5 4.859375 -8.878906 4.734375 -9.078125 C 4.609375 -9.285156 4.519531 -9.398438 4.46875 -9.421875 C 4.4375 -9.421875 4.421875 -9.421875 4.421875 -9.421875 C 4.347656 -9.421875 4.234375 -9.34375 4.078125 -9.1875 C 3.929688 -9.039062 3.804688 -8.816406 3.703125 -8.515625 C 3.554688 -8.035156 3.570312 -7.507812 3.75 -6.9375 C 3.925781 -6.375 4.378906 -5.851562 5.109375 -5.375 C 5.109375 -5.445312 5.109375 -5.519531 5.109375 -5.59375 Z M 5.109375 -5.59375"></path></g></g></g><g fill-opacity="1" fill="#0167b9"><g transform="translate(839.438173, 317.025989)"><g><path d="M 15.25 -8.4375 C 15.425781 -8.332031 15.539062 -8.1875 15.59375 -8 C 15.644531 -7.8125 15.617188 -7.628906 15.515625 -7.453125 C 14.328125 -5.359375 13.257812 -3.75 12.3125 -2.625 C 11.375 -1.507812 10.410156 -1.015625 9.421875 -1.140625 C 8.160156 -1.285156 7.164062 -2.644531 6.4375 -5.21875 C 6.1875 -6.050781 5.960938 -6.648438 5.765625 -7.015625 C 5.578125 -7.378906 5.425781 -7.601562 5.3125 -7.6875 C 5.195312 -7.78125 5.117188 -7.828125 5.078125 -7.828125 C 4.992188 -7.859375 4.835938 -7.785156 4.609375 -7.609375 C 4.390625 -7.429688 4.0625 -7.039062 3.625 -6.4375 C 3.195312 -5.832031 2.664062 -4.890625 2.03125 -3.609375 C 1.40625 -2.335938 0.640625 -0.59375 -0.265625 1.625 C -0.390625 1.925781 -0.601562 2.078125 -0.90625 2.078125 C -0.976562 2.078125 -1.039062 2.066406 -1.09375 2.046875 C -1.519531 1.941406 -1.710938 1.675781 -1.671875 1.25 C -1.535156 0.21875 -1.300781 -0.976562 -0.96875 -2.34375 C -0.644531 -3.707031 -0.289062 -5.09375 0.09375 -6.5 C 0.488281 -7.914062 0.847656 -9.179688 1.171875 -10.296875 C 1.242188 -10.546875 1.3125 -10.773438 1.375 -10.984375 C 1.4375 -11.203125 1.492188 -11.414062 1.546875 -11.625 C 1.628906 -11.820312 1.753906 -11.960938 1.921875 -12.046875 C 2.097656 -12.140625 2.273438 -12.160156 2.453125 -12.109375 C 2.660156 -12.054688 2.8125 -11.941406 2.90625 -11.765625 C 3.007812 -11.585938 3.023438 -11.398438 2.953125 -11.203125 C 2.898438 -11.003906 2.84375 -10.796875 2.78125 -10.578125 C 2.71875 -10.359375 2.648438 -10.125 2.578125 -9.875 C 2.398438 -9.21875 2.195312 -8.5 1.96875 -7.71875 C 1.738281 -6.9375 1.507812 -6.144531 1.28125 -5.34375 C 2.144531 -6.957031 2.878906 -8.023438 3.484375 -8.546875 C 4.085938 -9.078125 4.640625 -9.332031 5.140625 -9.3125 C 5.847656 -9.257812 6.40625 -8.863281 6.8125 -8.125 C 7.21875 -7.394531 7.554688 -6.550781 7.828125 -5.59375 C 8.210938 -4.289062 8.566406 -3.460938 8.890625 -3.109375 C 9.222656 -2.753906 9.460938 -2.578125 9.609375 -2.578125 C 9.941406 -2.523438 10.328125 -2.707031 10.765625 -3.125 C 11.203125 -3.539062 11.640625 -4.066406 12.078125 -4.703125 C 12.523438 -5.347656 12.941406 -5.984375 13.328125 -6.609375 C 13.722656 -7.242188 14.023438 -7.765625 14.234375 -8.171875 C 14.328125 -8.347656 14.472656 -8.460938 14.671875 -8.515625 C 14.878906 -8.566406 15.070312 -8.539062 15.25 -8.4375 Z M 15.25 -8.4375"></path></g></g></g><g fill-opacity="1" fill="#0167b9"><g transform="translate(852.947729, 317.025989)"><g><path d="M 17.375 -8.40625 C 17.46875 -8.226562 17.492188 -8.035156 17.453125 -7.828125 C 17.421875 -7.628906 17.316406 -7.476562 17.140625 -7.375 C 15.679688 -6.414062 14.015625 -5.300781 12.140625 -4.03125 C 10.273438 -2.757812 8.375 -1.289062 6.4375 0.375 C 5.570312 5.519531 4.644531 9.941406 3.65625 13.640625 C 2.675781 17.335938 1.660156 20.390625 0.609375 22.796875 C -0.429688 25.210938 -1.453125 27.050781 -2.453125 28.3125 C -3.460938 29.570312 -4.425781 30.328125 -5.34375 30.578125 C -5.613281 30.648438 -5.875 30.6875 -6.125 30.6875 C -6.9375 30.6875 -7.632812 30.332031 -8.21875 29.625 C -8.71875 28.96875 -9.066406 28.066406 -9.265625 26.921875 C -9.472656 25.773438 -9.515625 24.492188 -9.390625 23.078125 C -9.265625 21.972656 -8.972656 20.566406 -8.515625 18.859375 C -8.054688 17.160156 -7.25 15.265625 -6.09375 13.171875 C -4.550781 10.390625 -2.804688 7.875 -0.859375 5.625 C 1.078125 3.382812 3.054688 1.382812 5.078125 -0.375 C 5.253906 -1.414062 5.421875 -2.503906 5.578125 -3.640625 C 5.742188 -4.773438 5.90625 -5.929688 6.0625 -7.109375 C 5.707031 -6.578125 5.335938 -6.039062 4.953125 -5.5 C 4.578125 -4.957031 4.203125 -4.4375 3.828125 -3.9375 C 3.441406 -3.457031 3.015625 -3.007812 2.546875 -2.59375 C 2.085938 -2.175781 1.601562 -2.039062 1.09375 -2.1875 C 0.863281 -2.238281 0.640625 -2.382812 0.421875 -2.625 C 0.210938 -2.863281 0.0820312 -3.273438 0.03125 -3.859375 C -0.0078125 -4.492188 0.0625 -5.304688 0.25 -6.296875 C 0.4375 -7.296875 0.726562 -8.320312 1.125 -9.375 C 1.53125 -10.4375 2.035156 -11.398438 2.640625 -12.265625 C 3.253906 -13.140625 3.9375 -13.769531 4.6875 -14.15625 C 5.144531 -14.382812 5.691406 -14.503906 6.328125 -14.515625 C 6.972656 -14.523438 7.675781 -14.191406 8.4375 -13.515625 C 8.59375 -13.359375 8.675781 -13.1875 8.6875 -13 C 8.695312 -12.8125 8.628906 -12.640625 8.484375 -12.484375 C 8.347656 -12.335938 8.179688 -12.253906 7.984375 -12.234375 C 7.785156 -12.222656 7.609375 -12.28125 7.453125 -12.40625 C 6.546875 -13.238281 5.625 -13.238281 4.6875 -12.40625 C 4.113281 -11.882812 3.601562 -11.191406 3.15625 -10.328125 C 2.71875 -9.472656 2.359375 -8.585938 2.078125 -7.671875 C 1.804688 -6.765625 1.625 -5.941406 1.53125 -5.203125 C 1.445312 -4.460938 1.453125 -3.953125 1.546875 -3.671875 C 1.628906 -3.722656 1.765625 -3.828125 1.953125 -3.984375 C 2.140625 -4.148438 2.375 -4.425781 2.65625 -4.8125 C 3.15625 -5.46875 3.660156 -6.171875 4.171875 -6.921875 C 4.691406 -7.679688 5.164062 -8.390625 5.59375 -9.046875 C 6.03125 -9.703125 6.347656 -10.21875 6.546875 -10.59375 C 6.742188 -10.925781 7.035156 -11.03125 7.421875 -10.90625 C 7.796875 -10.800781 7.957031 -10.546875 7.90625 -10.140625 C 7.726562 -8.648438 7.546875 -7.210938 7.359375 -5.828125 C 7.171875 -4.441406 6.976562 -3.101562 6.78125 -1.8125 C 8.539062 -3.25 10.242188 -4.519531 11.890625 -5.625 C 13.546875 -6.738281 15.03125 -7.726562 16.34375 -8.59375 C 16.519531 -8.71875 16.703125 -8.753906 16.890625 -8.703125 C 17.085938 -8.648438 17.25 -8.550781 17.375 -8.40625 Z M -5.75 29.171875 C -5.144531 28.992188 -4.425781 28.398438 -3.59375 27.390625 C -2.757812 26.390625 -1.867188 24.84375 -0.921875 22.75 C 0.015625 20.65625 0.96875 17.90625 1.9375 14.5 C 2.914062 11.09375 3.832031 6.914062 4.6875 1.96875 C 2.945312 3.5625 1.257812 5.347656 -0.375 7.328125 C -2.019531 9.304688 -3.5 11.492188 -4.8125 13.890625 C -6.125 16.265625 -7.007812 18.460938 -7.46875 20.484375 C -7.9375 22.515625 -8.101562 24.242188 -7.96875 25.671875 C -7.832031 27.097656 -7.535156 28.113281 -7.078125 28.71875 C -6.703125 29.175781 -6.257812 29.328125 -5.75 29.171875 Z M -5.75 29.171875"></path></g></g></g></svg>